<svg viewBox="0 0 1200 900" fill="none" xmlns="http://www.w3.org/2000/svg"><path fill="#fff" d="M0 0h1200v900H0z"></path><path d="M596.867 23.327a58.352 58.352 0 00-22.301 5.67L270.263 175.106c-15.954 7.656-27.543 22.137-31.485 39.342l-75.073 328.196a57.83 57.83 0 007.9 44.466 57.672 57.672 0 003.308 4.615L385.54 854.884c11.044 13.794 27.789 21.826 45.495 21.823l337.773-.079c17.7.013 34.444-8.004 45.496-21.783l210.546-263.198a57.858 57.858 0 0011.25-49.081L960.91 214.37c-3.942-17.206-15.531-31.686-31.485-39.343L625.083 28.997a58.359 58.359 0 00-28.216-5.67z" fill="#326CE5" stroke="#fff" stroke-width=".5" opacity=".1"></path><path fill-rule="evenodd" clip-rule="evenodd" d="M490 552h220v228H490V552z" fill="#53777A"></path><path d="M524.827 650.766c-.567-4.704-4.126-7.408-8.839-7.408-5.38 0-9.486 3.798-9.486 10.46 0 6.642 4.037 10.46 9.486 10.46 5.22 0 8.372-3.47 8.839-7.218l-4.355-.02c-.408 2.177-2.118 3.43-4.415 3.43-3.092 0-5.19-2.297-5.19-6.652 0-4.236 2.068-6.652 5.22-6.652 2.357 0 4.057 1.362 4.385 3.6h4.355zm21.8 3.052c0-6.662-4.136-10.46-9.535-10.46-5.429 0-9.536 3.798-9.536 10.46 0 6.632 4.107 10.46 9.536 10.46 5.399 0 9.535-3.798 9.535-10.46zm-4.365 0c0 4.316-2.048 6.652-5.17 6.652-3.132 0-5.17-2.336-5.17-6.652 0-4.315 2.038-6.652 5.17-6.652 3.122 0 5.17 2.337 5.17 6.652zm24.587-10.182h-4.285v12.807h-.179l-8.79-12.807h-3.778V664h4.305v-12.817h.149l8.86 12.817h3.718v-20.364zm2.782 3.55h6.234V664h4.256v-16.814h6.234v-3.55h-16.724v3.55zM589.11 664h4.305v-7.219h3.142l3.858 7.219h4.753l-4.325-7.915c2.316-.994 3.599-3.013 3.599-5.797 0-4.047-2.675-6.652-7.298-6.652h-8.034V664zm4.305-10.679v-6.165h2.904c2.485 0 3.688 1.104 3.688 3.132 0 2.019-1.203 3.033-3.669 3.033h-2.923zm32.783.497c0-6.662-4.137-10.46-9.536-10.46-5.429 0-9.535 3.798-9.535 10.46 0 6.632 4.106 10.46 9.535 10.46 5.399 0 9.536-3.798 9.536-10.46zm-4.365 0c0 4.316-2.049 6.652-5.171 6.652-3.132 0-5.17-2.336-5.17-6.652 0-4.315 2.038-6.652 5.17-6.652 3.122 0 5.171 2.337 5.171 6.652zM629.387 664h13.036v-3.55h-8.731v-16.814h-4.305V664zm15.887 0h13.035v-3.55h-8.73v-16.814h-4.305V664zm15.887 0h13.761v-3.55h-9.456v-4.862h8.71v-3.55h-8.71v-4.852h9.416v-3.55h-13.721V664zm17.144 0h4.305v-7.219h3.142L689.61 664h4.753l-4.325-7.915c2.317-.994 3.599-3.013 3.599-5.797 0-4.047-2.674-6.652-7.298-6.652h-8.034V664zm4.305-10.679v-6.165h2.904c2.486 0 3.689 1.104 3.689 3.132 0 2.019-1.203 3.033-3.669 3.033h-2.924zm-152.823 24.315V698h4.177v-13.304h.169l5.27 13.205h2.843l5.27-13.155h.169V698h4.176v-20.364h-5.309l-5.608 13.682h-.239l-5.608-13.682h-5.31zM558.919 698l1.511-4.643h7.348l1.511 4.643h4.614l-7.02-20.364h-5.548L554.305 698h4.614zm2.605-8.004l2.505-7.706h.159l2.506 7.706h-5.17zm31.863-12.36h-4.286v12.807h-.179l-8.79-12.807h-3.778V698h4.305v-12.817h.149l8.86 12.817h3.719v-20.364zM600.454 698l1.511-4.643h7.348l1.511 4.643h4.614l-7.02-20.364h-5.548L595.84 698h4.614zm2.605-8.004l2.505-7.706h.16l2.505 7.706h-5.17zm27.376-5.777h4.375c-.557-4.027-4.107-6.861-8.71-6.861-5.38 0-9.526 3.878-9.526 10.48 0 6.443 3.878 10.44 9.615 10.44 5.141 0 8.81-3.251 8.81-8.61v-2.566h-8.522v3.242h4.375c-.059 2.525-1.779 4.126-4.643 4.126-3.232 0-5.27-2.416-5.27-6.672 0-4.236 2.118-6.632 5.23-6.632 2.218 0 3.719 1.144 4.266 3.053zM638.233 698h13.761v-3.55h-9.456v-4.862h8.71v-3.55h-8.71v-4.852h9.416v-3.55h-13.721V698zm17.144 0h4.306v-7.219h3.142l3.858 7.219h4.753l-4.326-7.915c2.317-.994 3.6-3.013 3.6-5.797 0-4.047-2.675-6.652-7.299-6.652h-8.034V698zm4.306-10.679v-6.165h2.903c2.486 0 3.689 1.104 3.689 3.132 0 2.019-1.203 3.033-3.669 3.033h-2.923z" fill="#fff"></path><path d="M709 550h-80v-5.88c0-3.395 2.82-6.12 6.333-6.12h67.285c3.512 0 6.333 2.725 6.333 6.12V550H709z" fill="#99ADD5"></path><path fill-rule="evenodd" clip-rule="evenodd" d="M627 552h83v-7.378c0-4.202-3.475-7.622-7.744-7.622h-67.512c-4.269 0-7.744 3.42-7.744 7.622V552zm80.22-2.736h-77.44v-4.691c0-2.687 2.234-4.886 4.964-4.886h67.512c2.73 0 4.964 2.199 4.964 4.886v4.691z" fill="#34485D"></path><path d="M642 530h54v8h-54v-8z" fill="#B9C8E6"></path><path fill-rule="evenodd" clip-rule="evenodd" d="M641 539h56.95v-9.296c0-.925-.751-1.704-1.753-1.704h-53.444c-.952 0-1.753.73-1.753 1.704V539zm54.195-2.677h-51.39v-5.549h51.39v5.549z" fill="#34485D"></path><path d="M668.975 466C655.732 466 645 476.763 645 490.045V529h48v-38.955C692.951 476.763 682.218 466 668.975 466z" fill="#EE6F79"></path><path fill-rule="evenodd" clip-rule="evenodd" d="M643 490.518V531h51v-40.482C694 476.446 682.562 465 668.5 465S643 476.446 643 490.518zm48.277 0v37.707h-45.455v-37.707c0-12.536 10.2-22.743 22.728-22.743 12.527 0 22.727 10.207 22.727 22.743z" fill="#34485D"></path><circle cx="669.5" cy="505.5" r="16.5" fill="#D95559"></circle><path d="M688.757 495h-.051c-.655-.051-1.209-.608-1.159-1.266.303-6.533-1.915-12.155-6.602-16.612-3.528-3.342-7.157-4.76-7.157-4.76-.605-.254-.958-.963-.706-1.57.252-.608.958-.963 1.563-.709.151.05 4.133 1.57 7.963 5.267 3.578 3.393 7.812 9.42 7.358 18.485-.05.659-.554 1.165-1.209 1.165zm-29.851-31a1.105 1.105 0 01-1.083-1.009l-.811-7.69a1.161 1.161 0 01.947-1.297c.586-.048 1.127.384 1.218 1.009l.811 7.689a1.162 1.162 0 01-.947 1.298h-.135zm-12.116 10c-.205 0-.359-.053-.565-.158l-8.529-4.437c-.617-.317-.874-1.109-.565-1.69.308-.634 1.079-.898 1.644-.581l8.529 4.437c.617.316.874 1.109.565 1.69-.154.475-.616.739-1.079.739zm4.945-6c-.413 0-.774-.201-1.032-.504l-5.47-7.556c-.413-.554-.258-1.309.31-1.712.567-.403 1.341-.252 1.754.302l5.47 7.556c.413.554.258 1.31-.31 1.713-.206.1-.464.201-.722.201zm50.058 79h-28.589c-.652 0-1.204-.458-1.204-1s.552-1 1.204-1h28.589c.652 0 1.204.458 1.204 1 .05.542-.502 1-1.204 1z" fill="#34485D"></path><path fill-rule="evenodd" clip-rule="evenodd" d="M327 350l-65 36v-72l65 36z" fill="#B8E986"></path><path fill-rule="evenodd" clip-rule="evenodd" d="M0 359v-20h308v20H0z" fill="#B8E986"></path><path fill-rule="evenodd" clip-rule="evenodd" d="M334 236h220v228H334V236z" fill="#53777A"></path><path d="M367.7 357l1.511-4.643h7.348L378.07 357h4.614l-7.02-20.364h-5.548L363.086 357h4.614zm2.605-8.004l2.506-7.706h.159l2.505 7.706h-5.17zm14.83 8.004h4.306v-6.602h3.619c4.683 0 7.408-2.794 7.408-6.861 0-4.047-2.675-6.901-7.299-6.901h-8.034V357zm4.306-10.053v-6.791h2.903c2.486 0 3.689 1.353 3.689 3.381 0 2.018-1.203 3.41-3.669 3.41h-2.923zm18.128-10.311h-4.305V357h4.305v-20.364zm21.07 5.857h4.126c-.059-3.629-3.042-6.135-7.576-6.135-4.465 0-7.736 2.466-7.716 6.165-.01 3.003 2.108 4.723 5.548 5.548l2.217.557c2.218.537 3.451 1.173 3.461 2.545-.01 1.492-1.422 2.506-3.61 2.506-2.237 0-3.848-1.034-3.987-3.072h-4.166c.109 4.404 3.261 6.681 8.203 6.681 4.972 0 7.895-2.376 7.905-6.105-.01-3.39-2.565-5.19-6.105-5.986l-1.83-.437c-1.77-.408-3.251-1.064-3.221-2.526 0-1.312 1.163-2.277 3.271-2.277 2.058 0 3.321.935 3.48 2.536zM435.94 357h13.761v-3.55h-9.456v-4.862h8.71v-3.55h-8.71v-4.852h9.416v-3.55H435.94V357zm17.144 0h4.306v-7.219h3.142L464.39 357h4.753l-4.326-7.915c2.317-.994 3.6-3.013 3.6-5.797 0-4.047-2.675-6.652-7.299-6.652h-8.034V357zm4.306-10.679v-6.165h2.903c2.486 0 3.689 1.104 3.689 3.132 0 2.019-1.203 3.033-3.669 3.033h-2.923zm17.174-9.685h-4.783l7.03 20.364h5.549l7.019-20.364h-4.772l-4.932 15.472h-.189l-4.922-15.472zM491.83 357h13.762v-3.55h-9.456v-4.862h8.71v-3.55h-8.71v-4.852h9.416v-3.55H491.83V357zm17.145 0h4.305v-7.219h3.142L520.28 357h4.753l-4.325-7.915c2.317-.994 3.599-3.013 3.599-5.797 0-4.047-2.674-6.652-7.298-6.652h-8.034V357zm4.305-10.679v-6.165h2.904c2.486 0 3.689 1.104 3.689 3.132 0 2.019-1.203 3.033-3.669 3.033h-2.924z" fill="#fff"></path><path fill="#53777A" d="M762 230h421v234H762z"></path><ellipse cx="763.5" cy="346.5" rx="102.5" ry="106.5" fill="#fff" stroke="#53777A" stroke-width="21"></ellipse><path d="M756.992 337.964c0 5.54-4.321 10.021-9.645 10.021-5.329 0-9.637-4.481-9.637-10.021 0-5.517 4.309-10.016 9.637-10.016 5.324 0 9.645 4.499 9.645 10.016zm12.46.002c0 5.54 4.32 10.021 9.645 10.021 5.324 0 9.64-4.481 9.64-10.021 0-5.519-4.316-10.018-9.64-10.018-5.325 0-9.645 4.499-9.645 10.018z" fill="#419EDA"></path><path fill-rule="evenodd" clip-rule="evenodd" d="M833.068 349.232c.742 0 1.439-.028 2.134-.089l2.087-.167-.199 2.2c-1.025 11.13-4.356 21.733-9.901 31.512l-1.075 1.901-1.623-1.428a27.414 27.414 0 00-13.196-6.397 117.99 117.99 0 01-11.251 19.039c-6.806 2.475-13.897 4.324-21.219 5.427-.705 5.052-.143 10.282 1.769 15.112l.811 2.051-2.082.475-15.953 1.837c-5.261 0-10.633-.62-15.959-1.837l-2.079-.475.808-2.047c1.918-4.83 2.48-10.054 1.775-15.105-7.351-1.103-14.468-2.956-21.299-5.438a117.861 117.861 0 01-11.239-19.021 27.298 27.298 0 00-13.132 6.391l-1.622 1.431-1.081-1.906c-5.535-9.767-8.867-20.371-9.907-31.519l-.2-2.203 2.125.168c.681.059 1.383.087 2.133.087 4.272 0 8.421-1.036 12.166-2.937a122.218 122.218 0 01-1.606-22.647 116.295 116.295 0 0113.985-17.183c-2.28-4.426-5.647-8.232-9.849-10.936l-1.808-1.163 1.414-1.656c7.147-8.375 16.058-15.125 25.767-19.521l1.953-.882.501 2.153a29.165 29.165 0 006.964 13.149 109.696 109.696 0 0120.158-8.626 109.643 109.643 0 0120.189 8.644 29.161 29.161 0 006.988-13.179l.498-2.153 1.961.886c9.832 4.46 18.504 11.033 25.77 19.534l1.411 1.653-1.81 1.162c-4.215 2.715-7.592 6.543-9.876 10.993a115.818 115.818 0 0114.01 17.251 122.192 122.192 0 01-1.647 22.492c3.764 1.919 7.936 2.967 12.236 2.967zm-69.73 30.062c7.619 0 15.284-1.076 22.832-3.209a93.295 93.295 0 009.79-21.427c2.352-7.499 3.743-15.323 4.161-23.38-4.902-6.306-10.474-11.839-16.628-16.485a87.543 87.543 0 00-20.155-11.384 87.162 87.162 0 00-20.194 11.409c-6.13 4.621-11.678 10.111-16.556 16.378.399 8.103 1.773 15.973 4.121 23.484a93.614 93.614 0 009.779 21.405c7.554 2.133 15.21 3.209 22.85 3.209z" fill="#419EDA"></path><path fill="#F1D4AF" d="M879 240h295v46H879z"></path><path d="M897.104 272c6.648 0 10.675-4.112 10.675-10.93 0-6.797-4.027-10.888-10.611-10.888h-7.798V272h7.734zm-3.121-3.952v-13.914h2.94c4.091 0 6.254 2.088 6.254 6.936 0 4.868-2.163 6.978-6.264 6.978h-2.93zm24.585 4.272c4.049 0 6.776-1.971 7.415-5.008l-4.197-.276c-.458 1.246-1.63 1.896-3.143 1.896-2.269 0-3.708-1.502-3.708-3.942v-.011h11.144v-1.246c0-5.561-3.367-8.31-7.692-8.31-4.815 0-7.937 3.42-7.937 8.47 0 5.188 3.079 8.427 8.118 8.427zm-3.633-10.153c.096-1.864 1.513-3.356 3.527-3.356 1.971 0 3.334 1.406 3.345 3.356h-6.872zm14.106 15.969h4.538v-8.757h.138c.629 1.364 2.003 2.887 4.645 2.887 3.729 0 6.637-2.951 6.637-8.427 0-5.625-3.036-8.416-6.626-8.416-2.738 0-4.048 1.63-4.656 2.962h-.202v-2.749h-4.474v22.5zm4.442-14.318c0-2.919 1.236-4.783 3.441-4.783 2.248 0 3.441 1.949 3.441 4.783 0 2.855-1.214 4.837-3.441 4.837-2.184 0-3.441-1.918-3.441-4.837zm19.08-13.636h-4.538V272h4.538v-21.818zm11.029 22.138c4.965 0 8.054-3.399 8.054-8.438 0-5.071-3.089-8.459-8.054-8.459-4.964 0-8.054 3.388-8.054 8.459 0 5.039 3.09 8.438 8.054 8.438zm.022-3.516c-2.291 0-3.463-2.099-3.463-4.954 0-2.855 1.172-4.964 3.463-4.964 2.247 0 3.419 2.109 3.419 4.964 0 2.855-1.172 4.954-3.419 4.954zm13.228 9.332c3.378 0 5.167-1.725 6.094-4.368l6.36-18.11-4.804-.022-3.42 12.017h-.171l-3.387-12.017h-4.773l5.87 16.833-.266.692c-.597 1.534-1.737 1.609-3.335 1.119l-1.023 3.388c.65.277 1.705.468 2.855.468zM991.619 272h4.538v-9.822c0-1.812 1.151-3.015 2.663-3.015 1.49 0 2.49 1.022 2.49 2.631V272h4.4v-9.993c0-1.694.97-2.844 2.62-2.844 1.45 0 2.54.905 2.54 2.727V272h4.53v-11.005c0-3.548-2.11-5.572-5.16-5.572-2.4 0-4.26 1.225-4.93 3.1h-.17c-.52-1.896-2.2-3.1-4.44-3.1-2.21 0-3.882 1.172-4.564 3.1h-.192v-2.887h-4.325V272zm34.821.32c4.05 0 6.77-1.971 7.41-5.008l-4.19-.276c-.46 1.246-1.63 1.896-3.15 1.896-2.27 0-3.7-1.502-3.7-3.942v-.011h11.14v-1.246c0-5.561-3.37-8.31-7.69-8.31-4.82 0-7.94 3.42-7.94 8.47 0 5.188 3.08 8.427 8.12 8.427zm-3.63-10.153c.09-1.864 1.51-3.356 3.52-3.356 1.97 0 3.34 1.406 3.35 3.356h-6.87zm18.64.373c.01-2.11 1.27-3.345 3.1-3.345 1.82 0 2.92 1.193 2.91 3.196V272h4.54v-10.419c0-3.814-2.24-6.158-5.65-6.158-2.43 0-4.19 1.193-4.92 3.1h-.19v-2.887h-4.33V272h4.54v-9.46zm22.83-6.904h-3.08v-3.92h-4.54v3.92h-2.24v3.409h2.24v8.523c-.02 3.207 2.16 4.794 5.45 4.656a8.883 8.883 0 002.47-.426l-.72-3.378c-.22.043-.7.15-1.13.15-.9 0-1.53-.341-1.53-1.598v-7.927h3.08v-3.409zM1082.44 272h3.41l.89-5.412h2.98l.57-3.409h-2.99l.68-4.176h2.99l.57-3.409h-2.99l.88-5.412h-3.41l-.88 5.412h-4.26l.88-5.412h-3.41l-.88 5.412h-2.97l-.58 3.409h2.98l-.68 4.176h-2.98l-.56 3.409h2.98l-.89 5.412h3.41l.89-5.412h4.26l-.89 5.412zm-2.81-8.821l.68-4.176h4.27l-.69 4.176h-4.26zm23.48-12.997h-4.34l-5.4 3.42v4.09l5-3.132h.13V272h4.61v-21.818z" fill="#4A4A4A"></path><path d="M554 349h118v3H554v-3z" fill="#9EEBCF"></path><circle cx="554.5" cy="350.5" r="6.5" fill="#fff" stroke="#9EEBCF" stroke-width="3"></circle><path d="M652 350.5l-8 5.5v-11l8 5.5z" fill="#9EEBCF"></path><path d="M554.011 416.045h34.549c5.523 0 10 4.477 10 10v125.97" stroke="#9EEBCF" stroke-width="3"></path><circle cx="554.5" cy="415.5" r="6" fill="#fff" stroke="#9EEBCF" stroke-width="3"></circle><path fill-rule="evenodd" clip-rule="evenodd" d="M598.5 555l-5.5-8h11l-5.5 8z" fill="#9EEBCF"></path></svg>