<svg viewBox="0 0 1200 900" fill="none" xmlns="http://www.w3.org/2000/svg"><path fill="#fff" d="M0 0h1200v900H0z"></path><path d="M596.867 23.327a58.354 58.354 0 00-22.301 5.67L270.263 175.106c-15.955 7.656-27.543 22.137-31.485 39.342l-75.074 328.196a57.835 57.835 0 007.901 44.466 57.672 57.672 0 003.308 4.615l210.626 263.159c11.045 13.794 27.789 21.826 45.496 21.822l337.773-.078c17.7.013 34.444-8.004 45.496-21.783l210.546-263.198a57.858 57.858 0 0011.25-49.081L960.91 214.37c-3.942-17.206-15.531-31.686-31.485-39.343L625.082 28.997a58.355 58.355 0 00-28.215-5.67z" fill="#326CE5" stroke="#fff" stroke-width=".5" opacity=".1"></path><path fill-rule="evenodd" clip-rule="evenodd" d="M327 450l-65 36v-72l65 36z" fill="#B8E986"></path><path fill-rule="evenodd" clip-rule="evenodd" d="M0 459v-20h308v20H0z" fill="#B8E986"></path><path fill-rule="evenodd" clip-rule="evenodd" d="M334 336h220v228H334V336z" fill="#53777A"></path><path d="M367.7 457l1.511-4.643h7.348L378.07 457h4.614l-7.02-20.364h-5.548L363.086 457h4.614zm2.605-8.004l2.506-7.706h.159l2.505 7.706h-5.17zm14.83 8.004h4.306v-6.602h3.619c4.683 0 7.408-2.794 7.408-6.861 0-4.047-2.675-6.901-7.299-6.901h-8.034V457zm4.306-10.053v-6.791h2.903c2.486 0 3.689 1.353 3.689 3.381 0 2.018-1.203 3.41-3.669 3.41h-2.923zm18.128-10.311h-4.305V457h4.305v-20.364zm21.07 5.857h4.126c-.059-3.629-3.042-6.135-7.576-6.135-4.465 0-7.736 2.466-7.716 6.165-.01 3.003 2.108 4.723 5.548 5.548l2.217.557c2.218.537 3.451 1.173 3.461 2.545-.01 1.492-1.422 2.506-3.61 2.506-2.237 0-3.848-1.034-3.987-3.072h-4.166c.109 4.404 3.261 6.681 8.203 6.681 4.972 0 7.895-2.376 7.905-6.105-.01-3.39-2.565-5.19-6.105-5.986l-1.83-.437c-1.77-.408-3.251-1.064-3.221-2.526 0-1.312 1.163-2.277 3.271-2.277 2.058 0 3.321.935 3.48 2.536zM435.94 457h13.761v-3.55h-9.456v-4.862h8.71v-3.55h-8.71v-4.852h9.416v-3.55H435.94V457zm17.144 0h4.306v-7.219h3.142L464.39 457h4.753l-4.326-7.915c2.317-.994 3.6-3.013 3.6-5.797 0-4.047-2.675-6.652-7.299-6.652h-8.034V457zm4.306-10.679v-6.165h2.903c2.486 0 3.689 1.104 3.689 3.132 0 2.019-1.203 3.033-3.669 3.033h-2.923zm17.174-9.685h-4.783l7.03 20.364h5.549l7.019-20.364h-4.772l-4.932 15.472h-.189l-4.922-15.472zM491.83 457h13.762v-3.55h-9.456v-4.862h8.71v-3.55h-8.71v-4.852h9.416v-3.55H491.83V457zm17.145 0h4.305v-7.219h3.142L520.28 457h4.753l-4.325-7.915c2.317-.994 3.599-3.013 3.599-5.797 0-4.047-2.674-6.652-7.298-6.652h-8.034V457zm4.305-10.679v-6.165h2.904c2.486 0 3.689 1.104 3.689 3.132 0 2.019-1.203 3.033-3.669 3.033h-2.924z" fill="#fff"></path><g clip-path="url(#clip0)"><path fill="#53777A" d="M762 334h421v234H762z"></path><path fill="#F1D4AF" d="M866 344h308v61H866z"></path><path d="M889.465 387c8.421 0 13.522-5.209 13.522-13.845 0-8.61-5.101-13.791-13.441-13.791h-9.877V387h9.796zm-3.953-5.006V364.37h3.724c5.182 0 7.921 2.645 7.921 8.785 0 6.167-2.739 8.839-7.934 8.839h-3.711zm31.141 5.411c5.128 0 8.583-2.497 9.392-6.343l-5.317-.35c-.58 1.578-2.064 2.402-3.98 2.402-2.875 0-4.696-1.903-4.696-4.993v-.014h14.115v-1.579c0-7.044-4.265-10.525-9.743-10.525-6.1 0-10.054 4.332-10.054 10.728 0 6.572 3.9 10.674 10.283 10.674zm-4.601-12.86c.121-2.362 1.916-4.251 4.466-4.251 2.497 0 4.224 1.781 4.237 4.251h-8.703zm17.866 20.228h5.749V383.68h.175c.796 1.728 2.537 3.657 5.884 3.657 4.723 0 8.407-3.738 8.407-10.674 0-7.125-3.846-10.66-8.394-10.66-3.468 0-5.128 2.064-5.897 3.751h-.256v-3.481h-5.668v28.5zm5.627-18.137c0-3.697 1.566-6.059 4.359-6.059 2.847 0 4.359 2.47 4.359 6.059 0 3.617-1.539 6.127-4.359 6.127-2.766 0-4.359-2.429-4.359-6.127zm24.169-17.272h-5.749V387h5.749v-27.636zm13.97 28.041c6.288 0 10.201-4.305 10.201-10.688 0-6.423-3.913-10.714-10.201-10.714-6.289 0-10.202 4.291-10.202 10.714 0 6.383 3.913 10.688 10.202 10.688zm.026-4.453c-2.901 0-4.385-2.659-4.385-6.275 0-3.617 1.484-6.289 4.385-6.289 2.848 0 4.332 2.672 4.332 6.289 0 3.616-1.484 6.275-4.332 6.275zm16.757 11.821c4.278 0 6.545-2.186 7.719-5.533l8.054-22.94-6.08-.027-4.336 15.221h-.216l-4.291-15.221h-6.045l7.435 21.321-.337.877c-.756 1.943-2.2 2.038-4.224 1.417l-1.295 4.291c.823.351 2.159.594 3.616.594zM1009.18 387h5.75v-12.442c0-2.294 1.46-3.819 3.38-3.819 1.89 0 3.15 1.296 3.15 3.333V387h5.58v-12.658c0-2.145 1.22-3.603 3.32-3.603 1.83 0 3.21 1.147 3.21 3.455V387h5.73v-13.94c0-4.493-2.67-7.057-6.53-7.057-3.03 0-5.4 1.552-6.25 3.927h-.21c-.66-2.402-2.78-3.927-5.63-3.927-2.79 0-4.91 1.484-5.77 3.927h-.25v-3.657h-5.48V387zm44.11.405c5.13 0 8.58-2.497 9.39-6.343l-5.31-.35c-.59 1.578-2.07 2.402-3.99 2.402-2.87 0-4.69-1.903-4.69-4.993v-.014h14.11v-1.579c0-7.044-4.26-10.525-9.74-10.525-6.1 0-10.05 4.332-10.05 10.728 0 6.572 3.9 10.674 10.28 10.674zm-4.6-12.86c.12-2.362 1.91-4.251 4.46-4.251 2.5 0 4.23 1.781 4.24 4.251h-8.7zm23.61.472c.02-2.672 1.61-4.237 3.93-4.237 2.31 0 3.7 1.511 3.68 4.048V387h5.75v-13.197c0-4.831-2.83-7.8-7.15-7.8-3.08 0-5.3 1.511-6.23 3.927h-.25v-3.657h-5.48V387h5.75v-11.983zm28.92-8.744h-3.9v-4.966h-5.75v4.966h-2.83v4.318h2.83v10.795c-.03 4.062 2.74 6.073 6.91 5.897 1.48-.054 2.54-.35 3.12-.539l-.91-4.278c-.28.054-.89.189-1.43.189-1.15 0-1.94-.432-1.94-2.024v-10.04h3.9v-4.318zM1124.23 387h4.32l1.12-6.855h3.78l.71-4.318h-3.78l.87-5.29h3.77l.73-4.318h-3.79l1.12-6.855h-4.32l-1.12 6.855h-5.39l1.12-6.855h-4.32l-1.12 6.855h-3.77l-.73 4.318h3.78l-.86 5.29h-3.78l-.71 4.318h3.77l-1.12 6.855h4.32l1.12-6.855h5.4l-1.12 6.855zm-3.56-11.173l.86-5.29h5.4l-.87 5.29h-5.39zm29.74-16.463h-5.5l-6.84 4.331v5.182l6.33-3.967h.16V387h5.85v-27.636z" fill="#4A4A4A"></path><ellipse cx="763.5" cy="450.5" rx="102.5" ry="106.5" fill="#fff" stroke="#53777A" stroke-width="21"></ellipse><path d="M756.992 441.963c0 5.541-4.321 10.022-9.645 10.022-5.329 0-9.637-4.481-9.637-10.022 0-5.516 4.309-10.015 9.637-10.015 5.324 0 9.645 4.499 9.645 10.015zm12.46.003c0 5.54 4.321 10.021 9.645 10.021s9.64-4.481 9.64-10.021c0-5.519-4.316-10.018-9.64-10.018-5.324 0-9.645 4.499-9.645 10.018z" fill="#419EDA"></path><path fill-rule="evenodd" clip-rule="evenodd" d="M833.068 453.232c.742 0 1.439-.028 2.134-.089l2.087-.167-.199 2.2c-1.025 11.13-4.356 21.733-9.901 31.512l-1.075 1.901-1.622-1.428a27.422 27.422 0 00-13.197-6.397 117.99 117.99 0 01-11.251 19.039c-6.806 2.475-13.897 4.324-21.219 5.427-.704 5.052-.143 10.282 1.769 15.112l.811 2.051-2.082.475-15.953 1.837c-5.261 0-10.633-.62-15.958-1.837l-2.08-.475.809-2.047c1.917-4.83 2.479-10.054 1.774-15.105-7.35-1.103-14.468-2.956-21.299-5.438a117.861 117.861 0 01-11.239-19.021 27.298 27.298 0 00-13.132 6.391l-1.622 1.431-1.081-1.906c-5.535-9.767-8.867-20.371-9.907-31.519l-.199-2.203 2.124.168c.681.059 1.383.087 2.133.087 4.272 0 8.421-1.036 12.166-2.937a122.218 122.218 0 01-1.606-22.647 116.295 116.295 0 0113.985-17.183c-2.28-4.426-5.647-8.232-9.849-10.936l-1.808-1.163 1.414-1.656c7.148-8.375 16.058-15.125 25.767-19.521l1.953-.882.502 2.153a29.154 29.154 0 006.963 13.149 109.696 109.696 0 0120.158-8.626 109.643 109.643 0 0120.189 8.644 29.161 29.161 0 006.988-13.179l.498-2.153 1.961.886c9.832 4.46 18.504 11.033 25.77 19.534l1.411 1.653-1.81 1.162c-4.215 2.715-7.592 6.543-9.876 10.993a115.818 115.818 0 0114.01 17.251 122.192 122.192 0 01-1.647 22.492c3.764 1.919 7.936 2.967 12.236 2.967zm-69.73 30.062c7.619 0 15.284-1.076 22.832-3.209a93.295 93.295 0 009.79-21.427c2.352-7.499 3.743-15.323 4.161-23.38-4.902-6.306-10.474-11.839-16.627-16.485a87.57 87.57 0 00-20.156-11.384 87.162 87.162 0 00-20.194 11.409c-6.13 4.621-11.678 10.111-16.556 16.378.399 8.103 1.773 15.973 4.121 23.484a93.614 93.614 0 009.779 21.405c7.554 2.133 15.21 3.209 22.85 3.209z" fill="#419EDA"></path></g><path d="M554 449h118v3H554v-3z" fill="#9EEBCF"></path><circle cx="554.5" cy="450.5" r="6.5" fill="#fff" stroke="#9EEBCF" stroke-width="3"></circle><path d="M652 450.5l-8 5.5v-11l8 5.5z" fill="#9EEBCF"></path></svg>