<svg viewBox="0 0 1200 900" fill="none" xmlns="http://www.w3.org/2000/svg"><path fill="#fff" d="M0 0h1200v900H0z"></path><path d="M596.867 23.327a58.352 58.352 0 00-22.301 5.67L270.263 175.106c-15.954 7.656-27.543 22.137-31.485 39.342l-75.073 328.196a57.83 57.83 0 007.9 44.466 57.672 57.672 0 003.308 4.615L385.54 854.884c11.044 13.794 27.789 21.826 45.495 21.823l337.773-.079c17.7.013 34.444-8.004 45.496-21.783l210.546-263.198a57.858 57.858 0 0011.25-49.081L960.91 214.37c-3.942-17.206-15.531-31.686-31.485-39.343L625.083 28.997a58.359 58.359 0 00-28.216-5.67z" fill="#326CE5" stroke="#fff" stroke-width=".5" opacity=".1"></path><path fill-rule="evenodd" clip-rule="evenodd" d="M490 552h220v228H490V552z" fill="#53777A"></path><path d="M524.827 650.766c-.567-4.704-4.126-7.408-8.839-7.408-5.38 0-9.486 3.798-9.486 10.46 0 6.642 4.037 10.46 9.486 10.46 5.22 0 8.372-3.47 8.839-7.218l-4.355-.02c-.408 2.177-2.118 3.43-4.415 3.43-3.092 0-5.19-2.297-5.19-6.652 0-4.236 2.068-6.652 5.22-6.652 2.357 0 4.057 1.362 4.385 3.6h4.355zm21.8 3.052c0-6.662-4.136-10.46-9.535-10.46-5.429 0-9.536 3.798-9.536 10.46 0 6.632 4.107 10.46 9.536 10.46 5.399 0 9.535-3.798 9.535-10.46zm-4.365 0c0 4.316-2.048 6.652-5.17 6.652-3.132 0-5.17-2.336-5.17-6.652 0-4.315 2.038-6.652 5.17-6.652 3.122 0 5.17 2.337 5.17 6.652zm24.587-10.182h-4.285v12.807h-.179l-8.79-12.807h-3.778V664h4.305v-12.817h.149l8.86 12.817h3.718v-20.364zm2.782 3.55h6.234V664h4.256v-16.814h6.234v-3.55h-16.724v3.55zM589.11 664h4.305v-7.219h3.142l3.858 7.219h4.753l-4.325-7.915c2.316-.994 3.599-3.013 3.599-5.797 0-4.047-2.675-6.652-7.298-6.652h-8.034V664zm4.305-10.679v-6.165h2.904c2.485 0 3.688 1.104 3.688 3.132 0 2.019-1.203 3.033-3.669 3.033h-2.923zm32.783.497c0-6.662-4.137-10.46-9.536-10.46-5.429 0-9.535 3.798-9.535 10.46 0 6.632 4.106 10.46 9.535 10.46 5.399 0 9.536-3.798 9.536-10.46zm-4.365 0c0 4.316-2.049 6.652-5.171 6.652-3.132 0-5.17-2.336-5.17-6.652 0-4.315 2.038-6.652 5.17-6.652 3.122 0 5.171 2.337 5.171 6.652zM629.387 664h13.036v-3.55h-8.731v-16.814h-4.305V664zm15.887 0h13.035v-3.55h-8.73v-16.814h-4.305V664zm15.887 0h13.761v-3.55h-9.456v-4.862h8.71v-3.55h-8.71v-4.852h9.416v-3.55h-13.721V664zm17.144 0h4.305v-7.219h3.142L689.61 664h4.753l-4.325-7.915c2.317-.994 3.599-3.013 3.599-5.797 0-4.047-2.674-6.652-7.298-6.652h-8.034V664zm4.305-10.679v-6.165h2.904c2.486 0 3.689 1.104 3.689 3.132 0 2.019-1.203 3.033-3.669 3.033h-2.924zm-152.823 24.315V698h4.177v-13.304h.169l5.27 13.205h2.843l5.27-13.155h.169V698h4.176v-20.364h-5.309l-5.608 13.682h-.239l-5.608-13.682h-5.31zM558.919 698l1.511-4.643h7.348l1.511 4.643h4.614l-7.02-20.364h-5.548L554.305 698h4.614zm2.605-8.004l2.505-7.706h.159l2.506 7.706h-5.17zm31.863-12.36h-4.286v12.807h-.179l-8.79-12.807h-3.778V698h4.305v-12.817h.149l8.86 12.817h3.719v-20.364zM600.454 698l1.511-4.643h7.348l1.511 4.643h4.614l-7.02-20.364h-5.548L595.84 698h4.614zm2.605-8.004l2.505-7.706h.16l2.505 7.706h-5.17zm27.376-5.777h4.375c-.557-4.027-4.107-6.861-8.71-6.861-5.38 0-9.526 3.878-9.526 10.48 0 6.443 3.878 10.44 9.615 10.44 5.141 0 8.81-3.251 8.81-8.61v-2.566h-8.522v3.242h4.375c-.059 2.525-1.779 4.126-4.643 4.126-3.232 0-5.27-2.416-5.27-6.672 0-4.236 2.118-6.632 5.23-6.632 2.218 0 3.719 1.144 4.266 3.053zM638.233 698h13.761v-3.55h-9.456v-4.862h8.71v-3.55h-8.71v-4.852h9.416v-3.55h-13.721V698zm17.144 0h4.306v-7.219h3.142l3.858 7.219h4.753l-4.326-7.915c2.317-.994 3.6-3.013 3.6-5.797 0-4.047-2.675-6.652-7.299-6.652h-8.034V698zm4.306-10.679v-6.165h2.903c2.486 0 3.689 1.104 3.689 3.132 0 2.019-1.203 3.033-3.669 3.033h-2.923z" fill="#fff"></path><path fill-rule="evenodd" clip-rule="evenodd" d="M327 350l-65 36v-72l65 36z" fill="#B8E986"></path><path fill-rule="evenodd" clip-rule="evenodd" d="M0 359v-20h308v20H0z" fill="#B8E986"></path><path fill-rule="evenodd" clip-rule="evenodd" d="M334 236h220v228H334V236z" fill="#53777A"></path><path d="M367.7 357l1.511-4.643h7.348L378.07 357h4.614l-7.02-20.364h-5.548L363.086 357h4.614zm2.605-8.004l2.506-7.706h.159l2.505 7.706h-5.17zm14.83 8.004h4.306v-6.602h3.619c4.683 0 7.408-2.794 7.408-6.861 0-4.047-2.675-6.901-7.299-6.901h-8.034V357zm4.306-10.053v-6.791h2.903c2.486 0 3.689 1.353 3.689 3.381 0 2.018-1.203 3.41-3.669 3.41h-2.923zm18.128-10.311h-4.305V357h4.305v-20.364zm21.07 5.857h4.126c-.059-3.629-3.042-6.135-7.576-6.135-4.465 0-7.736 2.466-7.716 6.165-.01 3.003 2.108 4.723 5.548 5.548l2.217.557c2.218.537 3.451 1.173 3.461 2.545-.01 1.492-1.422 2.506-3.61 2.506-2.237 0-3.848-1.034-3.987-3.072h-4.166c.109 4.404 3.261 6.681 8.203 6.681 4.972 0 7.895-2.376 7.905-6.105-.01-3.39-2.565-5.19-6.105-5.986l-1.83-.437c-1.77-.408-3.251-1.064-3.221-2.526 0-1.312 1.163-2.277 3.271-2.277 2.058 0 3.321.935 3.48 2.536zM435.94 357h13.761v-3.55h-9.456v-4.862h8.71v-3.55h-8.71v-4.852h9.416v-3.55H435.94V357zm17.144 0h4.306v-7.219h3.142L464.39 357h4.753l-4.326-7.915c2.317-.994 3.6-3.013 3.6-5.797 0-4.047-2.675-6.652-7.299-6.652h-8.034V357zm4.306-10.679v-6.165h2.903c2.486 0 3.689 1.104 3.689 3.132 0 2.019-1.203 3.033-3.669 3.033h-2.923zm17.174-9.685h-4.783l7.03 20.364h5.549l7.019-20.364h-4.772l-4.932 15.472h-.189l-4.922-15.472zM491.83 357h13.762v-3.55h-9.456v-4.862h8.71v-3.55h-8.71v-4.852h9.416v-3.55H491.83V357zm17.145 0h4.305v-7.219h3.142L520.28 357h4.753l-4.325-7.915c2.317-.994 3.599-3.013 3.599-5.797 0-4.047-2.674-6.652-7.298-6.652h-8.034V357zm4.305-10.679v-6.165h2.904c2.486 0 3.689 1.104 3.689 3.132 0 2.019-1.203 3.033-3.669 3.033h-2.924z" fill="#fff"></path><path fill="#53777A" d="M762 230h421v234H762z"></path><path fill="#F1D4AF" d="M879 240h295v46H879z"></path><path d="M897.104 272c6.648 0 10.675-4.112 10.675-10.93 0-6.797-4.027-10.888-10.611-10.888h-7.798V272h7.734zm-3.121-3.952v-13.914h2.94c4.091 0 6.254 2.088 6.254 6.936 0 4.868-2.163 6.978-6.264 6.978h-2.93zm24.585 4.272c4.049 0 6.776-1.971 7.415-5.008l-4.197-.276c-.458 1.246-1.63 1.896-3.143 1.896-2.269 0-3.708-1.502-3.708-3.942v-.011h11.144v-1.246c0-5.561-3.367-8.31-7.692-8.31-4.815 0-7.937 3.42-7.937 8.47 0 5.188 3.079 8.427 8.118 8.427zm-3.633-10.153c.096-1.864 1.513-3.356 3.527-3.356 1.971 0 3.334 1.406 3.345 3.356h-6.872zm14.106 15.969h4.538v-8.757h.138c.629 1.364 2.003 2.887 4.645 2.887 3.729 0 6.637-2.951 6.637-8.427 0-5.625-3.036-8.416-6.626-8.416-2.738 0-4.048 1.63-4.656 2.962h-.202v-2.749h-4.474v22.5zm4.442-14.318c0-2.919 1.236-4.783 3.441-4.783 2.248 0 3.441 1.949 3.441 4.783 0 2.855-1.214 4.837-3.441 4.837-2.184 0-3.441-1.918-3.441-4.837zm19.08-13.636h-4.538V272h4.538v-21.818zm11.029 22.138c4.965 0 8.054-3.399 8.054-8.438 0-5.071-3.089-8.459-8.054-8.459-4.964 0-8.054 3.388-8.054 8.459 0 5.039 3.09 8.438 8.054 8.438zm.022-3.516c-2.291 0-3.463-2.099-3.463-4.954 0-2.855 1.172-4.964 3.463-4.964 2.247 0 3.419 2.109 3.419 4.964 0 2.855-1.172 4.954-3.419 4.954zm13.228 9.332c3.378 0 5.167-1.725 6.094-4.368l6.36-18.11-4.804-.022-3.42 12.017h-.171l-3.387-12.017h-4.773l5.87 16.833-.266.692c-.597 1.534-1.737 1.609-3.335 1.119l-1.023 3.388c.65.277 1.705.468 2.855.468zM991.619 272h4.538v-9.822c0-1.812 1.151-3.015 2.663-3.015 1.49 0 2.49 1.022 2.49 2.631V272h4.4v-9.993c0-1.694.97-2.844 2.62-2.844 1.45 0 2.54.905 2.54 2.727V272h4.53v-11.005c0-3.548-2.11-5.572-5.16-5.572-2.4 0-4.26 1.225-4.93 3.1h-.17c-.52-1.896-2.2-3.1-4.44-3.1-2.21 0-3.882 1.172-4.564 3.1h-.192v-2.887h-4.325V272zm34.821.32c4.05 0 6.77-1.971 7.41-5.008l-4.19-.276c-.46 1.246-1.63 1.896-3.15 1.896-2.27 0-3.7-1.502-3.7-3.942v-.011h11.14v-1.246c0-5.561-3.37-8.31-7.69-8.31-4.82 0-7.94 3.42-7.94 8.47 0 5.188 3.08 8.427 8.12 8.427zm-3.63-10.153c.09-1.864 1.51-3.356 3.52-3.356 1.97 0 3.34 1.406 3.35 3.356h-6.87zm18.64.373c.01-2.11 1.27-3.345 3.1-3.345 1.82 0 2.92 1.193 2.91 3.196V272h4.54v-10.419c0-3.814-2.24-6.158-5.65-6.158-2.43 0-4.19 1.193-4.92 3.1h-.19v-2.887h-4.33V272h4.54v-9.46zm22.83-6.904h-3.08v-3.92h-4.54v3.92h-2.24v3.409h2.24v8.523c-.02 3.207 2.16 4.794 5.45 4.656a8.883 8.883 0 002.47-.426l-.72-3.378c-.22.043-.7.15-1.13.15-.9 0-1.53-.341-1.53-1.598v-7.927h3.08v-3.409zM1082.44 272h3.41l.89-5.412h2.98l.57-3.409h-2.99l.68-4.176h2.99l.57-3.409h-2.99l.88-5.412h-3.41l-.88 5.412h-4.26l.88-5.412h-3.41l-.88 5.412h-2.97l-.58 3.409h2.98l-.68 4.176h-2.98l-.56 3.409h2.98l-.89 5.412h3.41l.89-5.412h4.26l-.89 5.412zm-2.81-8.821l.68-4.176h4.27l-.69 4.176h-4.26zm23.48-12.997h-4.34l-5.4 3.42v4.09l5-3.132h.13V272h4.61v-21.818z" fill="#4A4A4A"></path><path fill="#F1D4AF" d="M879 299h295v46H879z"></path><path d="M891.896 331h4.613v-7.074h3.878c5.018 0 7.937-2.993 7.937-7.351 0-4.336-2.866-7.393-7.82-7.393h-8.608V331zm4.613-10.771v-7.276h3.111c2.663 0 3.952 1.449 3.952 3.622 0 2.163-1.289 3.654-3.931 3.654h-3.132zm21.856 11.091c4.964 0 8.054-3.399 8.054-8.438 0-5.071-3.09-8.459-8.054-8.459-4.965 0-8.054 3.388-8.054 8.459 0 5.039 3.089 8.438 8.054 8.438zm.021-3.516c-2.29 0-3.462-2.099-3.462-4.954 0-2.855 1.172-4.964 3.462-4.964 2.248 0 3.42 2.109 3.42 4.964 0 2.855-1.172 4.954-3.42 4.954zm17.014 3.462c2.642 0 4.016-1.523 4.644-2.887h.192V331h4.475v-21.818h-4.528v8.203h-.139c-.607-1.332-1.917-2.962-4.655-2.962-3.59 0-6.627 2.791-6.627 8.416 0 5.476 2.909 8.427 6.638 8.427zm1.438-3.611c-2.227 0-3.441-1.982-3.441-4.837 0-2.834 1.193-4.783 3.441-4.783 2.205 0 3.441 1.864 3.441 4.783 0 2.919-1.257 4.837-3.441 4.837zM963.652 331h3.409l.885-5.412h2.983l.564-3.409h-2.983l.682-4.176h2.983l.575-3.409h-2.993l.884-5.412h-3.409l-.884 5.412h-4.262l.885-5.412h-3.41l-.884 5.412h-2.972l-.575 3.409h2.983l-.682 4.176h-2.983l-.565 3.409h2.983l-.884 5.412h3.409l.884-5.412h4.262l-.885 5.412zm-2.812-8.821l.682-4.176h4.261l-.682 4.176h-4.261zm23.477-12.997h-4.336l-5.401 3.42v4.09l4.997-3.132h.127V331h4.613v-21.818z" fill="#4A4A4A"></path><path d="M1084.16 330h2.76v-4.244h2.33c3.01 0 4.76-1.796 4.76-4.411 0-2.601-1.72-4.436-4.69-4.436h-5.16V330zm2.76-6.462v-4.366h1.87c1.6 0 2.37.869 2.37 2.173 0 1.298-.77 2.193-2.36 2.193h-1.88zm8.89 6.462h8.85v-2.282h-6.08v-3.126h5.6v-2.282h-5.6v-3.119h6.05v-2.282h-8.82V330zm21.97-13.091h-2.75v8.233h-.12l-5.65-8.233h-2.43V330h2.77v-8.239h.09l5.7 8.239h2.39v-13.091zm6.93 13.091c3.99 0 6.4-2.467 6.4-6.558 0-4.078-2.41-6.533-6.36-6.533h-4.68V330h4.64zm-1.87-2.371v-8.348h1.76c2.45 0 3.75 1.252 3.75 4.161 0 2.921-1.3 4.187-3.76 4.187h-1.75zm13.09-10.72h-2.77V330h2.77v-13.091zm13.23 0h-2.76v8.233h-.11l-5.65-8.233h-2.43V330h2.77v-8.239h.09l5.7 8.239h2.39v-13.091zm10.96 4.232h2.82c-.36-2.589-2.64-4.411-5.6-4.411-3.46 0-6.13 2.493-6.13 6.737 0 4.142 2.5 6.712 6.19 6.712 3.3 0 5.66-2.09 5.66-5.536v-1.649h-5.48v2.084h2.81c-.04 1.624-1.14 2.653-2.98 2.653-2.08 0-3.39-1.553-3.39-4.289 0-2.723 1.36-4.264 3.36-4.264 1.43 0 2.39.735 2.74 1.963z" fill="#BF6908"></path><path fill="#F1D4AF" d="M879 354h295v46H879z"></path><path d="M889.92 386h4.613v-7.074h3.878c5.017 0 7.936-2.993 7.936-7.351 0-4.336-2.865-7.393-7.819-7.393h-8.608V386zm4.613-10.771v-7.276h3.11c2.664 0 3.953 1.449 3.953 3.622 0 2.163-1.289 3.654-3.931 3.654h-3.132zm21.855 11.091c4.965 0 8.054-3.399 8.054-8.438 0-5.071-3.089-8.459-8.054-8.459-4.964 0-8.054 3.388-8.054 8.459 0 5.039 3.09 8.438 8.054 8.438zm.021-3.516c-2.29 0-3.462-2.099-3.462-4.954 0-2.855 1.172-4.964 3.462-4.964 2.248 0 3.42 2.109 3.42 4.964 0 2.855-1.172 4.954-3.42 4.954zm17.014 3.462c2.642 0 4.016-1.523 4.645-2.887h.192V386h4.474v-21.818h-4.528v8.203h-.138c-.607-1.332-1.918-2.962-4.656-2.962-3.59 0-6.626 2.791-6.626 8.416 0 5.476 2.908 8.427 6.637 8.427zm1.438-3.611c-2.226 0-3.441-1.982-3.441-4.837 0-2.834 1.193-4.783 3.441-4.783 2.205 0 3.441 1.864 3.441 4.783 0 2.919-1.257 4.837-3.441 4.837zM961.676 386h3.409l.884-5.412h2.983l.565-3.409h-2.983l.682-4.176h2.983l.575-3.409h-2.994l.884-5.412h-3.409l-.884 5.412h-4.261l.884-5.412h-3.409l-.884 5.412h-2.973l-.575 3.409h2.983l-.682 4.176h-2.983l-.564 3.409h2.983l-.885 5.412h3.409l.885-5.412h4.261l-.884 5.412zm-2.813-8.821l.682-4.176h4.261l-.681 4.176h-4.262zM972.849 386h15.554v-3.771h-9.162v-.149l3.185-3.122c4.485-4.091 5.689-6.136 5.689-8.619 0-3.781-3.09-6.455-7.766-6.455-4.581 0-7.724 2.737-7.714 7.02h4.379c-.011-2.088 1.31-3.366 3.303-3.366 1.917 0 3.345 1.193 3.345 3.11 0 1.737-1.066 2.93-3.047 4.837l-7.766 7.191V386z" fill="#4A4A4A"></path><path d="M1084.16 385h2.76v-4.244h2.33c3.01 0 4.76-1.796 4.76-4.411 0-2.601-1.72-4.436-4.69-4.436h-5.16V385zm2.76-6.462v-4.366h1.87c1.6 0 2.37.869 2.37 2.173 0 1.298-.77 2.193-2.36 2.193h-1.88zm8.89 6.462h8.85v-2.282h-6.08v-3.126h5.6v-2.282h-5.6v-3.119h6.05v-2.282h-8.82V385zm21.97-13.091h-2.75v8.233h-.12l-5.65-8.233h-2.43V385h2.77v-8.239h.09l5.7 8.239h2.39v-13.091zm6.93 13.091c3.99 0 6.4-2.467 6.4-6.558 0-4.078-2.41-6.533-6.36-6.533h-4.68V385h4.64zm-1.87-2.371v-8.348h1.76c2.45 0 3.75 1.252 3.75 4.161 0 2.921-1.3 4.187-3.76 4.187h-1.75zm13.09-10.72h-2.77V385h2.77v-13.091zm13.23 0h-2.76v8.233h-.11l-5.65-8.233h-2.43V385h2.77v-8.239h.09l5.7 8.239h2.39v-13.091zm10.96 4.232h2.82c-.36-2.589-2.64-4.411-5.6-4.411-3.46 0-6.13 2.493-6.13 6.737 0 4.142 2.5 6.712 6.19 6.712 3.3 0 5.66-2.09 5.66-5.536v-1.649h-5.48v2.084h2.81c-.04 1.624-1.14 2.653-2.98 2.653-2.08 0-3.39-1.553-3.39-4.289 0-2.723 1.36-4.264 3.36-4.264 1.43 0 2.39.735 2.74 1.963z" fill="#BF6908"></path><path fill="#F1D4AF" d="M879 408h295v46H879z"></path><path d="M890.48 440h4.613v-7.074h3.878c5.018 0 7.937-2.993 7.937-7.351 0-4.336-2.866-7.393-7.82-7.393h-8.608V440zm4.613-10.771v-7.276h3.111c2.663 0 3.952 1.449 3.952 3.622 0 2.163-1.289 3.654-3.931 3.654h-3.132zm21.856 11.091c4.964 0 8.054-3.399 8.054-8.438 0-5.071-3.09-8.459-8.054-8.459-4.965 0-8.054 3.388-8.054 8.459 0 5.039 3.089 8.438 8.054 8.438zm.021-3.516c-2.29 0-3.462-2.099-3.462-4.954 0-2.855 1.172-4.964 3.462-4.964 2.248 0 3.42 2.109 3.42 4.964 0 2.855-1.172 4.954-3.42 4.954zm17.013 3.462c2.643 0 4.017-1.523 4.645-2.887h.192V440h4.475v-21.818h-4.528v8.203h-.139c-.607-1.332-1.917-2.962-4.655-2.962-3.59 0-6.627 2.791-6.627 8.416 0 5.476 2.909 8.427 6.637 8.427zm1.439-3.611c-2.227 0-3.441-1.982-3.441-4.837 0-2.834 1.193-4.783 3.441-4.783 2.205 0 3.441 1.864 3.441 4.783 0 2.919-1.257 4.837-3.441 4.837zM962.236 440h3.409l.885-5.412h2.983l.564-3.409h-2.983l.682-4.176h2.983l.575-3.409h-2.993l.884-5.412h-3.409l-.884 5.412h-4.262l.885-5.412h-3.41l-.884 5.412h-2.972l-.575 3.409h2.983l-.682 4.176h-2.983l-.565 3.409h2.983l-.884 5.412h3.409l.884-5.412h4.262l-.885 5.412zm-2.812-8.821l.682-4.176h4.261l-.682 4.176h-4.261zm22.05 9.119c4.9 0 8.405-2.695 8.395-6.424.01-2.716-1.716-4.655-4.922-5.06v-.171c2.439-.436 4.123-2.162 4.112-4.612.011-3.442-3.004-6.147-7.521-6.147-4.475 0-7.841 2.62-7.905 6.392h4.421c.053-1.662 1.577-2.738 3.462-2.738 1.865 0 3.111 1.129 3.1 2.77.011 1.715-1.448 2.876-3.547 2.876h-2.035v3.388h2.035c2.471 0 4.016 1.236 4.006 2.993.01 1.737-1.481 2.93-3.591 2.93-2.034 0-3.558-1.065-3.643-2.663h-4.645c.075 3.814 3.484 6.466 8.278 6.466z" fill="#4A4A4A"></path><path d="M1083.16 438h2.76v-4.244h2.33c3.01 0 4.76-1.796 4.76-4.411 0-2.601-1.72-4.436-4.69-4.436h-5.16V438zm2.76-6.462v-4.366h1.87c1.6 0 2.37.869 2.37 2.173 0 1.298-.77 2.193-2.36 2.193h-1.88zm8.89 6.462h8.85v-2.282h-6.08v-3.126h5.6v-2.282h-5.6v-3.119h6.05v-2.282h-8.82V438zm21.97-13.091h-2.75v8.233h-.12l-5.65-8.233h-2.43V438h2.77v-8.239h.09l5.7 8.239h2.39v-13.091zm6.93 13.091c3.99 0 6.4-2.467 6.4-6.558 0-4.078-2.41-6.533-6.36-6.533h-4.68V438h4.64zm-1.87-2.371v-8.348h1.76c2.45 0 3.75 1.252 3.75 4.161 0 2.921-1.3 4.187-3.76 4.187h-1.75zm13.09-10.72h-2.77V438h2.77v-13.091zm13.23 0h-2.76v8.233h-.11l-5.65-8.233h-2.43V438h2.77v-8.239h.09l5.7 8.239h2.39v-13.091zm10.96 4.232h2.82c-.36-2.589-2.64-4.411-5.6-4.411-3.46 0-6.13 2.493-6.13 6.737 0 4.142 2.5 6.712 6.19 6.712 3.3 0 5.66-2.09 5.66-5.536v-1.649h-5.48v2.084h2.81c-.04 1.624-1.14 2.653-2.98 2.653-2.08 0-3.39-1.553-3.39-4.289 0-2.723 1.36-4.264 3.36-4.264 1.43 0 2.39.735 2.74 1.963z" fill="#BF6908"></path><ellipse cx="763.5" cy="346.5" rx="102.5" ry="106.5" fill="#fff" stroke="#53777A" stroke-width="21"></ellipse><path d="M756.991 337.964c0 5.54-4.32 10.021-9.644 10.021-5.329 0-9.637-4.481-9.637-10.021 0-5.517 4.309-10.016 9.637-10.016 5.324 0 9.644 4.499 9.644 10.016zm12.461.002c0 5.54 4.32 10.021 9.645 10.021 5.324 0 9.64-4.481 9.64-10.021 0-5.519-4.316-10.018-9.64-10.018-5.325 0-9.645 4.499-9.645 10.018z" fill="#419EDA"></path><path fill-rule="evenodd" clip-rule="evenodd" d="M833.068 349.232c.742 0 1.439-.028 2.134-.089l2.087-.167-.199 2.2c-1.025 11.13-4.356 21.733-9.901 31.512l-1.075 1.901-1.623-1.428a27.414 27.414 0 00-13.196-6.397 117.99 117.99 0 01-11.251 19.039c-6.806 2.475-13.898 4.324-21.219 5.427-.705 5.052-.143 10.282 1.769 15.112l.811 2.051-2.082.475-15.953 1.837c-5.261 0-10.633-.62-15.959-1.837l-2.079-.475.808-2.047c1.918-4.83 2.48-10.054 1.775-15.105-7.351-1.103-14.468-2.956-21.299-5.438a117.861 117.861 0 01-11.239-19.021 27.294 27.294 0 00-13.132 6.391l-1.623 1.431-1.08-1.906c-5.535-9.767-8.867-20.371-9.908-31.519l-.199-2.203 2.124.168c.682.059 1.384.087 2.134.087 4.272 0 8.421-1.036 12.166-2.937a122.218 122.218 0 01-1.606-22.647 116.232 116.232 0 0113.985-17.183c-2.28-4.426-5.647-8.232-9.849-10.936l-1.808-1.163 1.414-1.656c7.147-8.375 16.058-15.125 25.767-19.521l1.953-.882.501 2.153a29.165 29.165 0 006.964 13.149 109.696 109.696 0 0120.158-8.626 109.643 109.643 0 0120.189 8.644 29.161 29.161 0 006.988-13.179l.498-2.153 1.961.886c9.832 4.46 18.504 11.033 25.77 19.534l1.411 1.653-1.81 1.162c-4.215 2.715-7.592 6.543-9.876 10.993a115.748 115.748 0 0114.009 17.251c.14 7.498-.393 15.023-1.646 22.492 3.764 1.919 7.936 2.967 12.236 2.967zm-69.73 30.062c7.619 0 15.284-1.076 22.832-3.209a93.295 93.295 0 009.79-21.427c2.352-7.499 3.743-15.323 4.161-23.38-4.902-6.306-10.474-11.839-16.628-16.485a87.543 87.543 0 00-20.155-11.384 87.19 87.19 0 00-20.195 11.409c-6.129 4.621-11.677 10.111-16.555 16.378.399 8.103 1.773 15.973 4.121 23.484a93.614 93.614 0 009.779 21.405c7.554 2.133 15.21 3.209 22.85 3.209z" fill="#419EDA"></path><path d="M554 349h118v3H554v-3z" fill="#9EEBCF"></path><circle cx="554.5" cy="350.5" r="6.5" fill="#fff" stroke="#9EEBCF" stroke-width="3"></circle><path d="M652 350.5l-8 5.5v-11l8 5.5z" fill="#9EEBCF"></path><path d="M554.011 416.045h34.549c5.523 0 10 4.477 10 10v125.97" stroke="#9EEBCF" stroke-width="3"></path><circle cx="554.5" cy="415.5" r="6" fill="#fff" stroke="#9EEBCF" stroke-width="3"></circle><path fill-rule="evenodd" clip-rule="evenodd" d="M598.5 555l-5.5-8h11l-5.5 8z" fill="#9EEBCF"></path></svg>