<svg viewBox="0 0 1200 900" fill="none" xmlns="http://www.w3.org/2000/svg"><path fill="#fff" d="M0 0h1200v900H0z"></path><path d="M183.187 822.742h7.261v-8.318l1.96-2.233 7.142 10.551h8.506l-10.21-14.847 9.716-11.335h-8.335l-8.387 9.937h-.392v-18.664h-7.261v34.909zm44.727-11.148c.017 3.511-2.386 5.352-4.994 5.352-2.745 0-4.517-1.926-4.534-5.011V796.56h-7.262v16.67c.017 6.12 3.597 9.853 8.864 9.853 3.937 0 6.767-2.029 7.943-5.097h.273v4.756h6.971V796.56h-7.261v15.034zm13.206 11.148h7.159v-4.193h.324c1.006 2.181 3.205 4.619 7.432 4.619 5.966 0 10.619-4.722 10.619-13.483 0-9-4.858-13.466-10.602-13.466-4.381 0-6.477 2.608-7.449 4.739h-.222v-13.125h-7.261v34.909zm7.108-13.091c0-4.671 1.977-7.654 5.506-7.654 3.596 0 5.505 3.12 5.505 7.654 0 4.568-1.943 7.738-5.505 7.738-3.495 0-5.506-3.068-5.506-7.738zm35.203 13.602c6.477 0 10.841-3.153 11.864-8.011l-6.716-.443c-.733 1.994-2.608 3.034-5.029 3.034-3.63 0-5.931-2.404-5.931-6.307v-.017h17.829v-1.995c0-8.897-5.386-13.295-12.307-13.295-7.704 0-12.699 5.472-12.699 13.551 0 8.301 4.927 13.483 12.989 13.483zm-5.812-16.244c.153-2.983 2.42-5.37 5.642-5.37 3.153 0 5.335 2.25 5.352 5.37h-10.994zm29.829-19.176h-7.261v34.909h7.261v-34.909zm17.749 35.42c6.477 0 10.841-3.153 11.863-8.011l-6.716-.443c-.732 1.994-2.607 3.034-5.028 3.034-3.631 0-5.932-2.404-5.932-6.307v-.017h17.83v-1.995c0-8.897-5.387-13.295-12.307-13.295-7.705 0-12.699 5.472-12.699 13.551 0 8.301 4.926 13.483 12.989 13.483zm-5.813-16.244c.154-2.983 2.421-5.37 5.642-5.37 3.154 0 5.336 2.25 5.353 5.37h-10.995zm36.495-10.449h-4.927v-6.273h-7.261v6.273h-3.579v5.454h3.579v13.637c-.034 5.13 3.46 7.67 8.727 7.449 1.875-.069 3.205-.444 3.938-.682l-1.142-5.404c-.358.069-1.125.239-1.807.239-1.449 0-2.455-.545-2.455-2.557v-12.682h4.927v-5.454z" fill="#000"></path><g clip-path="url(#clip0)"><path fill-rule="evenodd" clip-rule="evenodd" d="M774.081 713.726c5.478 0 9.919 4.441 9.919 9.919v37.693c0 5.479-4.441 9.92-9.919 9.92H424.919c-5.478 0-9.919-4.441-9.919-9.92v-37.693c0-5.478 4.441-9.919 9.919-9.919h349.162z" fill="#D2D2D2"></path><path fill="#A3A3A3" d="M476.5 725.629h7.935v7.935H476.5zm0 11.903h7.935v7.935H476.5zm0 11.903h7.935v7.935H476.5zm11.903-23.806h7.935v7.935h-7.935zm0 11.903h7.935v7.935h-7.935zm0 11.903h7.935v7.935h-7.935zm11.903-23.806h7.935v7.935h-7.935zm0 11.903h7.935v7.935h-7.935zm0 11.903h7.935v7.935h-7.935zm11.904-23.806h7.935v7.935h-7.935zm0 11.903h7.935v7.935h-7.935zm0 11.903h7.935v7.935h-7.935zm11.903-23.806h7.935v7.935h-7.935zm0 11.903h7.935v7.935h-7.935zm0 11.903h7.935v7.935h-7.935zm11.903-23.806h7.935v7.935h-7.935zm0 11.903h7.935v7.935h-7.935zm0 11.903h7.935v7.935h-7.935zm11.903-23.806h7.935v7.935h-7.935zm0 11.903h7.935v7.935h-7.935zm0 11.903h7.935v7.935h-7.935zm11.904-23.806h7.935v7.935h-7.935zm0 11.903h7.935v7.935h-7.935zm0 11.903h7.935v7.935h-7.935zm11.903-23.806h7.935v7.935h-7.935zm0 11.903h7.935v7.935h-7.935zm0 11.903h7.935v7.935h-7.935zm11.903-23.806h7.935v7.935h-7.935zm0 11.903h7.935v7.935h-7.935zm0 11.903h7.935v7.935h-7.935zm11.903-23.806h7.935v7.935h-7.935zm0 11.903h7.935v7.935h-7.935zm0 11.903h7.935v7.935h-7.935zm11.904-23.806h7.935v7.935h-7.935zm0 11.903h7.935v7.935h-7.935zm0 11.903h7.935v7.935h-7.935zm11.903-23.806h7.935v7.935h-7.935zm0 11.903h7.935v7.935h-7.935zm0 11.903h7.935v7.935h-7.935zm11.903-23.806h7.935v7.935h-7.935zm0 11.903h7.935v7.935h-7.935zm0 11.903h7.935v7.935h-7.935zm11.903-23.806h7.935v7.935h-7.935zm0 11.903h7.935v7.935h-7.935zm0 11.903h7.935v7.935h-7.935zm11.903-23.806h7.935v7.935h-7.935zm0 11.903h7.935v7.935h-7.935zm0 11.903h7.935v7.935h-7.935zm11.904-23.806h7.935v7.935h-7.935zm0 11.903h7.935v7.935h-7.935zm0 11.903h7.935v7.935h-7.935zm11.903-23.806h7.935v7.935h-7.935zm0 11.903h7.935v7.935h-7.935zm0 11.903h7.935v7.935h-7.935zm11.903-23.806h7.935v7.935h-7.935zm0 11.903h7.935v7.935h-7.935zm0 11.903h7.935v7.935h-7.935zm11.903-23.806h7.935v7.935h-7.935zm0 11.903h7.935v7.935h-7.935zm0 11.903h7.935v7.935h-7.935zm11.903-23.806h7.935v7.935h-7.935zm0 11.903h7.935v7.935h-7.935zm0 11.903h7.935v7.935h-7.935zm11.904-23.806h7.935v7.935h-7.935zm0 11.903h7.935v7.935h-7.935zm0 11.903h7.935v7.935h-7.935zm11.903-23.806h7.935v7.935h-7.935zm0 11.903h7.935v7.935h-7.935zm0 11.903h7.935v7.935h-7.935zm11.903-23.806h7.935v7.935h-7.935zm0 11.903h7.935v7.935h-7.935zm0 11.903h7.935v7.935h-7.935zm11.903-23.806h7.935v7.935h-7.935zm0 11.903h7.935v7.935h-7.935zm0 11.903h7.935v7.935h-7.935z"></path></g><g clip-path="url(#clip1)"><path fill-rule="evenodd" clip-rule="evenodd" d="M774.081 777.209c5.478 0 9.919 4.442 9.919 9.92v37.693c0 5.479-4.441 9.92-9.919 9.92H424.919c-5.478 0-9.919-4.441-9.919-9.92v-37.693c0-5.478 4.441-9.92 9.919-9.92h349.162z" fill="#326CE5"></path><path fill="#fff" d="M476.5 789.113h7.935v7.935H476.5zm0 11.903h7.935v7.935H476.5zm0 11.903h7.935v7.935H476.5zm11.903-23.806h7.935v7.935h-7.935zm0 11.903h7.935v7.935h-7.935zm0 11.903h7.935v7.935h-7.935zm11.903-23.806h7.935v7.935h-7.935zm0 11.903h7.935v7.935h-7.935zm0 11.903h7.935v7.935h-7.935zm11.904-23.806h7.935v7.935h-7.935zm0 11.903h7.935v7.935h-7.935zm0 11.903h7.935v7.935h-7.935zm11.903-23.806h7.935v7.935h-7.935zm0 11.903h7.935v7.935h-7.935zm0 11.903h7.935v7.935h-7.935zm11.903-23.806h7.935v7.935h-7.935zm0 11.903h7.935v7.935h-7.935zm0 11.903h7.935v7.935h-7.935zm11.903-23.806h7.935v7.935h-7.935zm0 11.903h7.935v7.935h-7.935zm0 11.903h7.935v7.935h-7.935zm11.904-23.806h7.935v7.935h-7.935zm0 11.903h7.935v7.935h-7.935zm0 11.903h7.935v7.935h-7.935zm11.903-23.806h7.935v7.935h-7.935zm0 11.903h7.935v7.935h-7.935zm0 11.903h7.935v7.935h-7.935zm11.903-23.806h7.935v7.935h-7.935zm0 11.903h7.935v7.935h-7.935zm0 11.903h7.935v7.935h-7.935zm11.903-23.806h7.935v7.935h-7.935zm0 11.903h7.935v7.935h-7.935zm0 11.903h7.935v7.935h-7.935zm11.904-23.806h7.935v7.935h-7.935zm0 11.903h7.935v7.935h-7.935zm0 11.903h7.935v7.935h-7.935zm11.903-23.806h7.935v7.935h-7.935zm0 11.903h7.935v7.935h-7.935zm0 11.903h7.935v7.935h-7.935zm11.903-23.806h7.935v7.935h-7.935zm0 11.903h7.935v7.935h-7.935zm0 11.903h7.935v7.935h-7.935zm11.903-23.806h7.935v7.935h-7.935zm0 11.903h7.935v7.935h-7.935zm0 11.903h7.935v7.935h-7.935zm11.903-23.806h7.935v7.935h-7.935zm0 11.903h7.935v7.935h-7.935zm0 11.903h7.935v7.935h-7.935zm11.904-23.806h7.935v7.935h-7.935zm0 11.903h7.935v7.935h-7.935zm0 11.903h7.935v7.935h-7.935zm11.903-23.806h7.935v7.935h-7.935zm0 11.903h7.935v7.935h-7.935zm0 11.903h7.935v7.935h-7.935zm11.903-23.806h7.935v7.935h-7.935zm0 11.903h7.935v7.935h-7.935zm0 11.903h7.935v7.935h-7.935zm11.903-23.806h7.935v7.935h-7.935zm0 11.903h7.935v7.935h-7.935zm0 11.903h7.935v7.935h-7.935zm11.903-23.806h7.935v7.935h-7.935zm0 11.903h7.935v7.935h-7.935zm0 11.903h7.935v7.935h-7.935zm11.904-23.806h7.935v7.935h-7.935zm0 11.903h7.935v7.935h-7.935zm0 11.903h7.935v7.935h-7.935zm11.903-23.806h7.935v7.935h-7.935zm0 11.903h7.935v7.935h-7.935zm0 11.903h7.935v7.935h-7.935zm11.903-23.806h7.935v7.935h-7.935zm0 11.903h7.935v7.935h-7.935zm0 11.903h7.935v7.935h-7.935zm11.903-23.806h7.935v7.935h-7.935zm0 11.903h7.935v7.935h-7.935zm0 11.903h7.935v7.935h-7.935z"></path></g><g clip-path="url(#clip2)"><path fill-rule="evenodd" clip-rule="evenodd" d="M774.081 65c5.478 0 9.919 4.441 9.919 9.92v622.935c0 5.478-4.441 9.919-9.919 9.919H424.919c-5.478 0-9.919-4.441-9.919-9.919V74.919c0-5.478 4.441-9.919 9.919-9.919h349.162z" fill="#D2D2D2"></path><path fill="#A3A3A3" d="M428.887 76.903h7.935v7.935h-7.935zm0 11.903h7.935v7.935h-7.935zm0 11.903h7.935v7.935h-7.935zm11.903-23.806h7.935v7.935h-7.935zm0 11.903h7.935v7.935h-7.935zm0 11.903h7.935v7.935h-7.935zm11.904-23.806h7.935v7.935h-7.935zm0 11.903h7.935v7.935h-7.935zm0 11.903h7.935v7.935h-7.935zm11.903-23.806h7.935v7.935h-7.935zm0 11.903h7.935v7.935h-7.935zm0 11.903h7.935v7.935h-7.935zM476.5 76.903h7.935v7.935H476.5zm0 11.903h7.935v7.935H476.5zm0 11.903h7.935v7.935H476.5zm11.903-23.806h7.935v7.935h-7.935zm0 11.903h7.935v7.935h-7.935zm0 11.903h7.935v7.935h-7.935zm11.903-23.806h7.935v7.935h-7.935zm0 11.903h7.935v7.935h-7.935zm0 11.903h7.935v7.935h-7.935zm11.904-23.806h7.935v7.935h-7.935zm0 11.903h7.935v7.935h-7.935zm0 11.903h7.935v7.935h-7.935zm11.903-23.806h7.935v7.935h-7.935zm0 11.903h7.935v7.935h-7.935zm0 11.903h7.935v7.935h-7.935zm11.903-23.806h7.935v7.935h-7.935zm0 11.903h7.935v7.935h-7.935zm0 11.903h7.935v7.935h-7.935zm11.903-23.806h7.935v7.935h-7.935zm0 11.903h7.935v7.935h-7.935zm0 11.903h7.935v7.935h-7.935zm11.904-23.806h7.935v7.935h-7.935zm0 11.903h7.935v7.935h-7.935zm0 11.903h7.935v7.935h-7.935zm11.903-23.806h7.935v7.935h-7.935zm0 11.903h7.935v7.935h-7.935zm0 11.903h7.935v7.935h-7.935zm11.903-23.806h7.935v7.935h-7.935zm0 11.903h7.935v7.935h-7.935zm0 11.903h7.935v7.935h-7.935zm11.903-23.806h7.935v7.935h-7.935zm0 11.903h7.935v7.935h-7.935zm0 11.903h7.935v7.935h-7.935zm11.904-23.806h7.935v7.935h-7.935zm0 11.903h7.935v7.935h-7.935zm0 11.903h7.935v7.935h-7.935zm11.903-23.806h7.935v7.935h-7.935zm0 11.903h7.935v7.935h-7.935zm0 11.903h7.935v7.935h-7.935zm11.903-23.806h7.935v7.935h-7.935zm0 11.903h7.935v7.935h-7.935zm0 11.903h7.935v7.935h-7.935zm11.903-23.806h7.935v7.935h-7.935zm0 11.903h7.935v7.935h-7.935zm0 11.903h7.935v7.935h-7.935zm11.903-23.806h7.935v7.935h-7.935zm0 11.903h7.935v7.935h-7.935zm0 11.903h7.935v7.935h-7.935zm11.904-23.806h7.935v7.935h-7.935zm0 11.903h7.935v7.935h-7.935zm0 11.903h7.935v7.935h-7.935zm11.903-23.806h7.935v7.935h-7.935zm0 11.903h7.935v7.935h-7.935zm0 11.903h7.935v7.935h-7.935zm11.903-23.806h7.935v7.935h-7.935zm0 11.903h7.935v7.935h-7.935zm0 11.903h7.935v7.935h-7.935zm11.903-23.806h7.935v7.935h-7.935zm0 11.903h7.935v7.935h-7.935zm0 11.903h7.935v7.935h-7.935zm11.903-23.806h7.935v7.935h-7.935zm0 11.903h7.935v7.935h-7.935zm0 11.903h7.935v7.935h-7.935zm11.904-23.806h7.935v7.935h-7.935zm0 11.903h7.935v7.935h-7.935zm0 11.903h7.935v7.935h-7.935zm11.903-23.806h7.935v7.935h-7.935zm0 11.903h7.935v7.935h-7.935zm0 11.903h7.935v7.935h-7.935zm11.903-23.806h7.935v7.935h-7.935zm0 11.903h7.935v7.935h-7.935zm0 11.903h7.935v7.935h-7.935zm11.903-23.806h7.935v7.935h-7.935zm0 11.903h7.935v7.935h-7.935zm0 11.903h7.935v7.935h-7.935zm-333.29 585.242h7.935v7.935h-7.935zm11.903 0h7.935v7.935h-7.935zm11.904 0h7.935v7.935h-7.935zm11.903 0h7.935v7.935h-7.935zm11.903 0h7.935v7.935H476.5zm11.903 0h7.935v7.935h-7.935zm11.903 0h7.935v7.935h-7.935zm11.904 0h7.935v7.935h-7.935zm11.903 0h7.935v7.935h-7.935zm11.903 0h7.935v7.935h-7.935zm11.903 0h7.935v7.935h-7.935zm11.904 0h7.935v7.935h-7.935zm11.903 0h7.935v7.935h-7.935zm11.903 0h7.935v7.935h-7.935zm11.903 0h7.935v7.935h-7.935zm11.904 0h7.935v7.935h-7.935zm11.903 0h7.935v7.935h-7.935zm11.903 0h7.935v7.935h-7.935zm11.903 0h7.935v7.935h-7.935zm11.903 0h7.935v7.935h-7.935zm11.904 0h7.935v7.935h-7.935zm11.903 0h7.935v7.935h-7.935zm11.903 0h7.935v7.935h-7.935zm11.903 0h7.935v7.935h-7.935zm11.903 0h7.935v7.935h-7.935zm11.904 0h7.935v7.935h-7.935zm11.903 0h7.935v7.935h-7.935zm11.903 0h7.935v7.935h-7.935zm11.903 0h7.935v7.935h-7.935z"></path><rect x="428.887" y="122.532" width="341.226" height="551.516" rx="3.968" fill="#fff"></rect></g><path fill-rule="evenodd" clip-rule="evenodd" d="M451.808 740.191h4.711v-4.283h-4.711v4.283zm-5.568 0h4.711v-4.283h-4.711v4.283zm-5.568 0h4.711v-4.283h-4.711v4.283zm-5.568 0h4.711v-4.283h-4.711v4.283zm-5.568 0h4.711v-4.283h-4.711v4.283zm5.568-5.139h4.711v-4.283h-4.711v4.283zm5.568 0h4.711v-4.283h-4.711v4.283zm5.568 0h4.711v-4.283h-4.711v4.283zm0-5.14h4.711v-4.283h-4.711v4.283zm24.438 7.782c-1.029-.689-3.393-.941-5.213-.598-.234-1.713-1.189-3.199-2.926-4.542l-.999-.666-.667.999c-.853 1.287-1.279 3.07-1.139 4.779.063.601.26 1.677.879 2.623-.619.332-1.841.79-3.452.759h-30.985l-.061.357c-.291 1.718-.285 7.078 3.196 11.199 2.645 3.131 6.612 4.719 11.789 4.719 11.223 0 19.526-5.166 23.414-14.556 1.529.03 4.821.009 6.512-3.222.044-.075.146-.269.441-.881l.162-.335-.951-.635z" fill="#A3A3A3"></path><path d="M447.227 787.184c-.323.017-.64.097-.932.237l-12.726 6.095a2.42 2.42 0 00-1.316 1.641l-3.14 13.692a2.41 2.41 0 00.469 2.047l8.808 10.978a2.438 2.438 0 001.903.911l14.125-.004c.74.001 1.44-.334 1.902-.908l8.805-10.98a2.41 2.41 0 00.47-2.048l-3.144-13.691a2.419 2.419 0 00-1.317-1.641l-12.727-6.092a2.449 2.449 0 00-1.18-.237z" fill="#326CE5" stroke="#fff" stroke-width=".992"></path><path fill-rule="evenodd" clip-rule="evenodd" d="M447.354 791.844c-.421 0-.762.379-.762.848l.001.011.001.01-.002.064v.132c.007.178.034.329.063.482.014.079.029.159.041.244l.001.011c.064.528.117.966.084 1.374-.032.155-.146.296-.248.395l-.018.323a9.814 9.814 0 00-6.353 3.062 8.842 8.842 0 01-.275-.196l-.055.009c-.119.018-.243.038-.398-.053-.337-.227-.644-.54-1.013-.916l-.014-.014a5.247 5.247 0 01-.163-.183 3.23 3.23 0 00-.338-.35c-.034-.029-.081-.066-.124-.1l-.045-.036a.909.909 0 00-.531-.2.735.735 0 00-.607.269c-.262.33-.178.834.187 1.126l.002.001.004.003.006.004.045.037c.039.032.079.066.113.09.142.106.277.177.413.25.072.038.144.077.218.12.456.283.833.516 1.133.798.104.112.131.298.147.405l.006.036.244.218a9.896 9.896 0 00-1.554 6.888l-.319.093-.031.04c-.081.107-.187.246-.297.292-.387.122-.823.168-1.348.223l-.017.002c-.086.007-.168.01-.249.013-.155.007-.308.013-.482.046-.041.007-.093.02-.142.032l-.061.015-.007.001-.005.002-.006.002c-.449.108-.737.522-.645.93.093.407.532.655.983.558l.006-.001.006-.001a.019.019 0 01.007-.002l.007-.003.059-.012c.049-.011.099-.021.138-.032.173-.046.314-.107.458-.169.073-.032.147-.063.226-.094l.022-.007c.494-.178.905-.326 1.306-.384.151-.012.308.08.404.136a.853.853 0 01.034.019l.332-.057a9.933 9.933 0 004.392 5.498l-.138.333c.05.129.105.304.068.431-.148.385-.401.79-.69 1.243-.047.07-.095.136-.142.2-.092.127-.183.252-.266.41a2.775 2.775 0 00-.063.131 1.807 1.807 0 01-.035.074c-.196.42-.052.904.324 1.085.378.183.848-.01 1.051-.431l.002-.001v-.002l.011-.022.021-.042c.022-.045.046-.092.062-.13.071-.163.111-.31.152-.46.021-.079.042-.158.068-.24.06-.151.112-.304.163-.453.119-.353.232-.685.427-.919.076-.09.2-.125.328-.16l.173-.313a9.817 9.817 0 007.029.018l.087.157v.001l.076.136.052.016c.115.035.236.071.336.22.205.351.346.765.516 1.263l.007.021c.026.081.047.159.068.236.041.151.082.3.153.464.017.04.043.09.066.138l.029.058c.202.422.674.615 1.053.432.376-.181.519-.665.324-1.085l-.03-.061a2.832 2.832 0 00-.07-.144 3.065 3.065 0 00-.265-.406v-.001a4.767 4.767 0 01-.143-.202c-.289-.452-.528-.828-.676-1.212-.053-.171-.007-.286.038-.397l.021-.053c-.02-.023-.054-.116-.086-.202l-.041-.107a9.933 9.933 0 004.391-5.537c.099.016.27.046.325.057a.776.776 0 00.047-.032c.099-.069.202-.14.38-.126.4.058.811.206 1.305.383l.023.008c.08.031.155.064.229.096.143.062.283.123.454.169.036.009.081.018.125.027l.072.015.007.003.008.002.006.001.005.001c.452.097.891-.151.983-.558.093-.408-.195-.822-.644-.93l-.082-.02h-.001c-.048-.012-.099-.025-.138-.032-.174-.033-.327-.039-.482-.046-.081-.003-.163-.006-.249-.013l-.016-.002c-.525-.055-.962-.101-1.35-.223-.141-.055-.246-.21-.307-.3l-.021-.031-.308-.09a9.872 9.872 0 00-.159-3.565 9.898 9.898 0 00-1.428-3.307l.155-.139.001-.001.001-.001.001-.001.112-.101.005-.055c.008-.121.016-.246.139-.377.299-.282.676-.516 1.132-.798.075-.044.148-.083.22-.121.137-.073.271-.144.413-.25.033-.024.074-.057.113-.089v-.001l.055-.045c.365-.292.45-.796.187-1.126-.262-.329-.77-.36-1.136-.068l-.047.037c-.042.033-.088.069-.122.098a3.288 3.288 0 00-.341.353 6.43 6.43 0 01-.162.181l-.027.027c-.364.371-.667.68-1 .904-.13.076-.313.062-.422.054a2.383 2.383 0 01-.04-.003l-.29.207a9.971 9.971 0 00-6.323-3.062l-.018-.341a1.549 1.549 0 00-.041-.039c-.089-.081-.182-.166-.208-.343-.032-.4.02-.83.082-1.345l.005-.04c.012-.085.027-.165.041-.244.028-.153.056-.304.063-.482.001-.04 0-.091-.001-.14l-.001-.077c0-.469-.341-.848-.761-.848zm-.954 5.922l-.226 4.005-.017.008a.672.672 0 01-1.066.516l-.006.003-3.276-2.328a7.835 7.835 0 014.591-2.204zm6.473 2.206a7.9 7.9 0 00-4.564-2.206l.226 3.999.004.001a.67.67 0 001.067.514l.012.005 3.255-2.313zm-12.253 1.494l2.992 2.682-.004.016a.674.674 0 01-.263 1.157l-.003.013-3.835 1.11a7.886 7.886 0 011.113-4.978zm14.427 2.405a7.968 7.968 0 00-.982-2.403l-2.975 2.669.002.008a.673.673 0 00.263 1.157l.004.016 3.854 1.113a7.985 7.985 0 00-.166-2.56zm-8.307.484h1.226l.761.955-.273 1.191-1.1.53-1.104-.532-.273-1.191.763-.953zm4.083 3.278a.658.658 0 00-.412.055.676.676 0 00-.325.873l-.005.007 1.54 3.728a7.874 7.874 0 003.175-3.999l-3.966-.672-.007.008zm-6.815.005a.672.672 0 01.607.938l.011.015-1.523 3.69a7.905 7.905 0 01-3.166-3.971l3.932-.669.007.008a.654.654 0 01.132-.011zm3.635 1.684a.671.671 0 00-.882.288h-.003l-1.933 3.505a7.861 7.861 0 004.298.222 8.51 8.51 0 00.775-.217l-1.939-3.511h-.014a.663.663 0 00-.302-.287z" fill="#fff"></path><path d="M446.592 792.692h.496-.496zm.762-.848v-.496.496zm-.761.859l-.493.055.493-.055zm.001.01l.496.005v-.008l-.001-.008-.495.011zm-.002.064l-.495-.011v.011h.495zm0 0l.496.01v-.01h-.496zm0 .132l.496-.018v-.001l-.496.019zm.063.482l-.488.09.488-.09zm.041.244l.493-.059-.002-.011-.491.07zm.001.011l-.492.059.492-.059zm.084 1.374l.485.101.007-.03.002-.031-.494-.04zm-.248.395l-.345-.356-.139.135-.011.193.495.028zm-.018.323l.041.494.431-.036.024-.431-.496-.027zm-1.376.212l-.11-.484.11.484zm-4.977 2.85l-.28.41.35.239.291-.309-.361-.34zm-.275-.196l.295-.398-.162-.12-.2.027.067.491zm-.055.009l-.077-.49h-.004l.081.49zm0 0l.078.489h.004l-.082-.489zm-.398-.053l-.277.411.013.01.014.008.25-.429zm-1.013-.916l.353-.348-.003-.003-.35.351zm0 0l-.374.327.011.012.012.012.351-.351zm0 0l.373-.327-.01-.01-.01-.011-.353.348zm-.014-.014l-.361.34.007.008.354-.348zm-.163-.183l.375-.325-.375.325zm-.338-.35l-.324.376.324-.376zm-.124-.1l-.317.381.005.005.006.005.306-.391zm0 0l.318-.381-.011-.009-.307.39zm-.045-.036l-.31.388.003.002.307-.39zm-.531-.2l.017-.496-.017.496zm-.607.269l-.388-.309.388.309zm.187 1.126l-.309.387.009.007.3-.394zm.002.001l-.3.395.008.006.008.006.284-.407zm.004.003l.288-.404-.004-.003-.284.407zm.006.004l.314-.383-.013-.011-.014-.01-.287.404zm.045.037l.315-.383h-.001l-.314.383zm.113.09l.295-.399-.295.399zm.413.25l-.233.438.233-.438zm.218.12l.261-.421-.009-.006-.252.427zm1.133.798l.362-.339-.011-.011-.011-.011-.34.361zm.147.405l.491-.072-.491.072zm.006.036l-.49.08.028.172.131.117.331-.369zm.244.218l.413.274.237-.357-.319-.286-.331.369zm-1.554 6.888l.138.477.414-.121-.062-.426-.49.07zm-.319.093l-.139-.476-.157.046-.099.13.395.3zm-.031.04l-.394-.3-.001.001.395.299zm-.297.292l.15.473.02-.007.019-.008-.189-.458zm-1.348.223l-.052-.493.052.493zm-.017.002l.041.494.011-.001-.052-.493zm-.249.013v.496h.019l-.019-.496zm0 0v-.496h-.01l-.01.001.02.495zm-.482.046l.093.487-.093-.487zm-.142.032l.118.482-.118-.482zm-.061.015l-.114-.483-.007.002.121.481zm-.007.001l-.12-.481-.008.002-.008.003.136.476zm-.005.002l.136.477-.136-.477zm-.006.002l.117.482.009-.003.01-.002-.136-.477zm-.645.93l-.483.11.483-.11zm.983.558l.105.484.006-.001-.111-.483zm.006-.001l-.053-.493.053.493zm0 0l.053.493h.001l-.054-.493zm.006-.001l.108.484.003-.001-.111-.483zm.007-.002l-.178-.463.178.463zm.007-.003l-.106-.484-.012.002.118.482zm.059-.012l-.093-.488-.01.002.103.486zm0 0l.092.487.012-.002-.104-.485zm0 0l-.103-.486-.001.001.104.485zm.138-.032l.129.479-.129-.479zm.458-.169l.196.455-.196-.455zm.226-.094l-.168-.466-.01.003.178.463zm.022-.007l.168.466-.168-.466zm1.306-.384l-.039-.495-.016.002-.016.002.071.491zm.404.136l-.249.428.001.001.248-.429zm0 0l.25-.429-.002-.001-.248.43zm.034.019l-.243.432.153.086.174-.029-.084-.489zm.332-.057l.472-.152-.132-.41-.424.073.084.489zm4.392 5.498l.458.19.165-.397-.369-.22-.254.427zm-.138.333l-.458-.191-.076.184.071.185.463-.178zm.068.431l.463.178.007-.019.006-.02-.476-.139zm-.69 1.243l.413.275.006-.009-.419-.266zm-.142.2l.397.298.004-.006-.401-.292zm0 0l-.397-.297-.004.005.401.292zm-.266.41l.439.231-.439-.231zm-.063.131l-.451-.207.451.207zm-.035.074l-.447-.215-.002.006.449.209zm.324 1.085l-.215.447.215-.447zm1.051-.431l-.439-.23-.004.007-.003.008.446.215zm.002-.001l.447.215.047-.099.002-.109-.496-.007zm0-.001l.496.007.001-.039-.006-.038-.491.07zm0 0l-.491-.074-.01.072.01.072.491-.07zm0-.001l-.445-.218-.034.069-.011.076.49.073zm.011-.022l-.444-.221-.001.003.445.218zm.021-.042l-.444-.222v.001l.444.221zm.062-.13l.455.198-.455-.198zm.152-.46l.478.129-.478-.129zm.068-.24l-.461-.183-.006.017-.006.016.473.15zm.163-.453l-.47-.159.47.159zm.427-.919l.38.319-.38-.319zm.328-.16l.129.479.204-.055.102-.185-.435-.239zm.173-.313l.178-.463-.404-.155-.209.379.435.239zm5.722.413l.11.483-.11-.483zm1.307-.395l.432-.243-.209-.372-.399.151.176.464zm.087.157l.435-.237-.001-.002-.434.239zm0 .001l-.435.237.002.004.433-.241zm0 0l.435-.239-.002-.002-.433.241zm.076.136l-.43.248.095.164.181.059.154-.471zm.052.016l.148-.474-.005-.001-.143.475zm0 0l-.148.473h.001l.147-.473zm0 0l-.147.474.004.001.143-.475zm.336.22l.429-.25-.008-.014-.009-.013-.412.277zm.516 1.263l.47-.157-.001-.003-.469.16zm0 0l.481-.12-.005-.019-.006-.018-.47.157zm0 0l-.481.121.005.02.006.019.47-.16zm.007.021l.473-.15-.004-.01-.469.16zm.068.236l.481-.12-.003-.011-.478.131zm0 0l-.481.12.002.011.479-.131zm.153.464l-.454.198.454-.198zm.066.138l-.444.22.444-.22zm.029.058l.447-.215-.001-.002-.446.217zm1.053.432l-.216-.446.216.446zm.324-1.085l.449-.21-.003-.005-.446.215zm-.03-.061l.449-.212-.449.212zm-.07-.144l.439-.232-.439.232zm-.265-.406l-.412.275.006.009.006.008.4-.292zm0 0l.413-.276-.008-.011-.008-.011-.397.298zm0-.001l-.401.292.004.006.397-.298zm0 0l.402-.291-.002-.002-.4.293zm-.143-.202l-.419.267.006.009.413-.276zm-.676-1.212l-.473.148.005.015.005.015.463-.178zm.038-.397l.46.185-.46-.185zm.021-.053l.464.173.104-.276-.194-.223-.374.326zm-.086-.202l.465-.172-.005-.012-.46.184zm0 0l-.465.173.004.011.461-.184zm-.041-.107l-.253-.427-.37.219.165.398.458-.19zm4.391-5.537l.077-.49-.421-.066-.129.406.473.15zm.325.057l-.097.486.2.041.171-.113-.274-.414zm.047-.032l.284.407-.284-.407zm.38-.126l.071-.491-.016-.002-.016-.002-.039.495zm1.305.383l-.168.467.168-.467zm.023.008l.178-.463-.01-.003-.168.466zm.229.096l-.197.455.197-.455zm.454.169l-.128.479.128-.479zm.125.027l.098-.486-.098.486zm.072.015l.119-.482-.012-.002-.107.484zm.007.003l.179-.463-.179.463zm.008.002l-.11.484h.002l.108-.484zm.006.001l.054-.493h-.001l-.053.493zm.005.001l-.11.483.006.002.104-.485zm.983-.558l-.483-.11.483.11zm-.644-.93l.117-.482-.007-.002-.11.484zm-.082-.02l-.133.478.013.003.12-.481zm0 0l.132-.478-.003-.001-.129.479zm0 0l.129-.479-.009-.002-.12.481zm0 0l-.127.479.006.002.121-.481zm-.001 0l.127-.48-.014-.003-.113.483zm0 0l-.119.481.007.002.112-.483zm-.138-.032l-.093.487.093-.487zm-.482-.046l-.019.496.019-.496zm-.249-.013l-.052.493.011.001.041-.494zm-.016-.002l-.052.493.052-.493zm-1.35-.223l-.179.462.015.006.015.005.149-.473zm-.307-.3l-.418.267.004.006.004.006.41-.279zm0 0l.419-.266-.004-.006-.004-.006-.411.278zm-.021-.031l.405-.286-.1-.142-.166-.049-.139.477zm-.308-.09l-.491-.068-.059.424.411.12.139-.476zm-.159-3.565l.483-.111-.483.111zm-1.428-3.307l-.334-.367-.316.288.238.355.412-.276zm.155-.139l-.33-.37h-.001l.331.37zm0 0l.331.37v-.001l-.331-.369zm.001-.001l-.33-.371-.001.001.331.37zm0 0l.33.37-.33-.37zm.001-.001l.33.37.001-.001-.331-.369zm.001-.001l-.331-.369.331.369zm.112-.101l.336.365.141-.13.017-.191-.494-.044zm.005-.055l-.495-.034.495.034zm.139-.377l-.34-.362-.012.012-.011.011.363.339zm1.132-.798l.261.422.009-.006-.27-.416zm0 0l-.261-.422-.01.006.271.416zm0 0l-.252-.427-.009.005.261.422zm.22-.121l-.233-.438.233.438zm.413-.25l-.295-.398.295.398zm.113-.089l-.31-.388-.006.005.316.383zm0-.001l.31.388.006-.005-.316-.383zm.055-.045l-.31-.387-.001.001.311.386zm.187-1.126l-.388.309.388-.309zm-1.136-.068l.307.39.003-.003-.31-.387zm-.047.037l-.306-.39-.003.002.309.388zm0 0l.306.39.003-.002-.309-.388zm-.122.098l.324.376-.324-.376zm-.341.353l.374.326-.374-.326zm-.162.181l.354.347.007-.007-.361-.34zm-.027.027l.335.366.01-.009.009-.009-.354-.348zm0 0l-.335-.365-.01.008-.009.01.354.347zm-1 .904l.25.429.014-.009.014-.009-.278-.411zm-.422.054l-.039.494.039-.494zm-.04-.003l.029-.495-.175-.011-.143.102.289.404zm-.29.207l-.359.342.297.312.351-.251-.289-.403zm-6.323-3.062l-.494.033.028.423.422.038.044-.494zm-.018-.341l.496-.02-.008-.2-.144-.138-.344.358zm-.041-.039l-.335.366.335-.366zm-.208-.343l-.494.04.001.016.003.016.49-.072zm.082-1.345l.492.06-.492-.06zm.005-.04l-.491-.07-.002.011.493.059zm.041-.244l-.479-.128-.005.019-.004.019.488.09zm0 0l.479.128.005-.019.004-.019-.488-.09zm.063-.482l-.496-.018.496.018zm-.001-.14h-.496l.001.01.495-.01zm0 0h.496v-.015l-.496.015zm0 0l-.495.01v.005l.495-.015zm-.001-.077h-.496v.002l.496-.002zm-1.941 9.079l.222.443.257-.128.016-.287-.495-.028zm.226-4.005l.495.028.033-.592-.588.071.06.493zm-.243 4.013l-.222-.443-.261.131-.012.291.495.021zm-1.066.516l.293-.4-.244-.179-.271.135.222.444zm-.006.003l-.287.404.243.173.266-.134-.222-.443zm-3.276-2.328l-.349-.353-.421.415.482.342.288-.404zm3.779-2.064l.11.484-.11-.484zm2.721-.14l.061-.492-.59-.073.034.593.495-.028zm4.564 2.206l.287.404.483-.343-.423-.415-.347.354zm-4.338 1.793l-.495.028.016.286.257.129.222-.443zm.004.001l.495-.021-.012-.292-.261-.13-.222.443zm.146.39l-.388.309.388-.309zm.921.124l.196-.456-.26-.111-.229.167.293.4zm.012.005l-.196.456.256.11.227-.162-.287-.404zm-6.006 1.863l.486.097.055-.277-.21-.189-.331.369zm-2.992-2.682l.331-.369-.443-.398-.311.508.423.259zm2.988 2.698l-.486-.097-.056.282.217.189.325-.374zm.085.927l.388.309-.388-.309zm-.348.23l-.131-.478-.28.077-.07.281.481.12zm-.003.013l.137.477.275-.08.069-.277-.481-.12zm-3.835 1.11l-.493.053.064.587.567-.164-.138-.476zm14.558-4.976l.423-.26-.312-.506-.442.396.331.37zm.982 2.403l.483-.111-.483.111zm-3.957.266l-.331-.369-.21.188.055.278.486-.097zm.002.008l.326.374.216-.189-.056-.282-.486.097zm-.213.357l-.484-.11.484.11zm.476.8l.487-.098-.06-.3-.295-.081-.132.479zm.004.016l-.487.097.059.296.29.083.138-.476zm3.854 1.113l-.138.476.573.165.058-.593-.493-.048zm-7.247-2.076l.387-.309-.149-.187h-.238v.496zm-1.226 0v-.496h-.238l-.149.186.387.31zm1.987.955l.484.111.053-.234-.149-.187-.388.31zm-.273 1.191l.215.446.215-.103.053-.232-.483-.111zm-1.1.53l-.216.447.216.103.215-.103-.215-.447zm-1.104-.532l-.483.111.053.232.215.104.215-.447zm-.273-1.191l-.387-.31-.15.187.053.234.484-.111zm4.692 2.314l-.025-.496.025.496zm.154.011l-.09.488.292.054.186-.233-.388-.309zm-.412.055l-.215-.446.215.446zm-.325.873l.397.297.172-.229-.113-.263-.456.195zm-.005.007l-.397-.297-.169.226.108.26.458-.189zm1.54 3.728l-.459.189.226.548.5-.319-.267-.418zm3.175-3.999l.467.166.198-.556-.582-.099-.083.489zm-3.966-.672l.083-.489-.289-.049-.182.228.388.31zm-6.178.537l.484-.111-.484.111zm-.644-.524l.007-.496-.007.496zm.607.938l-.456-.196-.115.269.179.231.392-.304zm.011.015l.459.189.109-.266-.176-.227-.392.304zm-1.523 3.69l-.269.417.5.322.227-.55-.458-.189zm-3.166-3.971l-.083-.489-.584.099.201.558.466-.168zm3.932-.669l.388-.309-.183-.229-.288.049.083.489zm.007.008l-.388.31.186.232.292-.054-.09-.488zm3.453 1.606l.019.495-.019-.495zm.314.067l.216-.447-.216.447zm-.882.288v.496h.298l.14-.262-.438-.234zm-.003 0v-.496h-.293l-.141.257.434.239zm-1.933 3.505l-.435-.24-.285.518.559.191.161-.469zm4.298.222l-.11-.484.11.484zm.775-.217l.158.47.563-.19-.287-.52-.434.24zm-1.939-3.511l.434-.24-.141-.256h-.293v.496zm-.014 0l-.438.233.14.263h.298v-.496zm-.857-16.917c0-.246.168-.352.266-.352v-.992c-.744 0-1.258.653-1.258 1.344h.992zm-.002-.043v.008a.261.261 0 01.002.035h-.992l.002.046.002.02.986-.109zm.003.053a.326.326 0 00-.002-.037l-.001-.016-.986.109-.001-.006-.001-.028.991-.022zm-.001.085l.002-.069-.992-.01-.001.058.991.021zm0-.01h-.991.991zm0 0h-.991.991zm0 0h-.991.991zm0 0h-.991.991zm0 0h-.991.991zm0 0h-.991.991zm0 0h-.991.991zm0 .113a1.678 1.678 0 010-.103l-.991-.02c-.001.041-.003.105-.001.16l.992-.037zm.054.411a2.787 2.787 0 01-.054-.41l-.992.036c.008.219.043.403.071.554l.975-.18zm.045.264a5.948 5.948 0 00-.045-.264l-.975.18c.015.081.028.151.038.224l.982-.14zm.003.022l-.001-.011-.985.118.001.011.985-.118zm.085 1.473c.038-.467-.023-.959-.085-1.473l-.985.118c.065.542.109.927.081 1.275l.989.08zm-.396.711c.121-.118.324-.346.387-.65l-.971-.202c.001-.004-.002.01-.023.043a.652.652 0 01-.084.097l.691.712zm.132-.006l.018-.323-.991-.055-.018.323.991.055zm-1.762.669c.436-.1.873-.166 1.307-.202l-.082-.988c-.479.039-.962.112-1.445.222l.22.968zm-4.726 2.706a9.29 9.29 0 014.726-2.706l-.22-.968a10.292 10.292 0 00-5.229 2.994l.723.68zm-.932-.137c.048.035.201.145.291.207l.56-.819a14.97 14.97 0 01-.26-.185l-.591.797zm.319.099a.704.704 0 01.043-.006l-.133-.983a1.346 1.346 0 00-.065.01l.155.979zm.004 0l-.163-.979.163.979zm-.73-.113c.316.184.594.134.726.113l-.155-.979-.062.009c-.013.001-.016 0-.015.001l.01.001-.004-.002-.5.857zm-1.117-.997c.36.366.703.719 1.09.979l.555-.822c-.288-.194-.558-.466-.938-.853l-.707.696zm.003.003l.701-.702-.701.702zm-.023-.024l.747-.654-.747.654zm.006.007l.014.014.707-.696-.013-.013-.708.695zm-.184-.206c.052.06.111.128.177.198l.722-.679a5.562 5.562 0 01-.149-.169l-.75.65zm-.287-.299c.105.09.184.18.287.299l.75-.65c-.101-.116-.223-.258-.389-.401l-.648.752zm-.106-.085c.047.036.083.065.106.085l.648-.752a4.742 4.742 0 00-.142-.114l-.612.781zm-.011-.01l.635-.762-.635.762zm-.035-.027l.046.036.613-.78-.046-.035-.613.779zm-.241-.094c.074.002.161.03.238.092l.619-.775a1.397 1.397 0 00-.823-.309l-.034.992zm-.202.082a.236.236 0 01.202-.082l.034-.992a1.23 1.23 0 00-1.012.456l.776.618zm.109.429c-.191-.152-.171-.351-.109-.429l-.776-.618c-.462.581-.274 1.391.266 1.822l.619-.775zm-.007-.005l-.002-.002-.601.789.002.002.601-.789zm-.013-.01l-.004-.002-.568.813.004.003.568-.814zm.009.007l-.005-.004-.575.808.005.004.575-.808zm.072.058l-.045-.037-.629.766.045.037.629-.766zm.094.074c-.021-.014-.05-.039-.093-.074l-.631.765c.036.03.088.073.133.107l.591-.798zm.352.212a2.62 2.62 0 01-.352-.212l-.591.798c.176.13.341.217.476.289l.467-.875zm.236.13a5.816 5.816 0 00-.236-.13l-.467.875c.073.039.135.072.199.11l.504-.855zm1.221.864c-.344-.323-.768-.583-1.212-.858l-.522.843c.467.289.798.497 1.054.737l.68-.722zm.298.694c-.008-.051-.023-.157-.056-.269a1.005 1.005 0 00-.22-.403l-.724.678c-.014-.014-.018-.023-.017-.021a.213.213 0 01.01.027c.011.036.017.077.026.133l.981-.145zm.004.028l-.004-.028-.981.145.006.043.979-.16zm.086-.071l-.244-.219-.662.739.244.219.662-.739zm-1.395 7.187a9.408 9.408 0 011.477-6.544l-.827-.548a10.397 10.397 0 00-1.631 7.233l.981-.141zm-.671.64l.319-.093-.277-.953-.319.093.277.953zm.225-.136l.031-.04-.789-.601-.03.04.788.601zm-.502.449a.987.987 0 00.333-.242c.07-.076.132-.158.17-.208l-.79-.599a2.117 2.117 0 01-.105.13.254.254 0 01-.023.022c-.002.002.01-.009.038-.02l.377.917zm-1.485.258c.511-.053 1.001-.103 1.446-.243l-.299-.946c-.33.104-.712.146-1.251.203l.104.986zm-.017.002l.017-.002-.104-.986-.017.002.104.986zm-.282.016c.08-.003.173-.007.271-.015l-.082-.988a5.006 5.006 0 01-.228.012l.039.991zm-.019 0v-.992.992zm-.389.037c.133-.025.251-.031.408-.037l-.039-.991c-.153.006-.34.013-.554.053l.185.975zm-.117.027l.117-.027-.185-.975a3.726 3.726 0 00-.168.038l.236.964zm-.066.016l.066-.016-.236-.964-.057.014.227.966zm.001 0l.006-.002-.241-.962-.006.001.241.963zm.01-.003l.006-.002-.273-.953-.006.001.273.954zm-.006.002l.006-.002-.273-.954-.005.002.272.954zm-.297.343c-.022-.097.044-.282.278-.338l-.234-.964c-.664.161-1.175.804-1.011 1.522l.967-.22zm.395.183c-.234.05-.373-.086-.395-.183l-.967.22c.163.718.902 1.077 1.571.932l-.209-.969zm.057-.009h-.005l-.011.002c-.008.001-.026.003-.048.008l.222.967c-.02.005-.036.007-.042.008l-.009.001-.107-.986zm0 0l.106.986-.106-.986zm-.049.008l.039-.007.009-.001.108.986.004-.001.011-.001a.399.399 0 00.045-.008l-.216-.968zm-.063.019a.06.06 0 01.013-.005c.01-.003.026-.009.047-.013l.222.966a.518.518 0 00.054-.015l.021-.008-.357-.925zm.067-.022a.844.844 0 00-.062.02l-.005.002.357.925-.012.004a.536.536 0 01-.041.013l-.237-.964zm.074-.016l-.062.014.213.969.054-.012-.205-.971zm.01-.002l.185.975-.185-.975zm-.011.003h-.001l.209.97v-.001l-.208-.969zm.114-.026l-.113.025.206.971c.044-.01.109-.023.164-.038l-.257-.958zm.39-.146c-.146.063-.256.11-.39.146l.257.958c.212-.057.383-.131.525-.193l-.392-.911zm.244-.101c-.089.035-.172.07-.244.101l.392.911c.075-.031.139-.059.208-.086l-.356-.926zm.032-.011l-.022.008.336.933.022-.008-.336-.933zm1.403-.408c-.46.067-.922.235-1.403.408l.336.933c.507-.182.868-.31 1.209-.359l-.142-.982zm.725.198a1.843 1.843 0 00-.245-.124.99.99 0 00-.448-.078l.078.989c-.019.002-.029-.001-.027 0a.933.933 0 01.143.07l.499-.857zm-.002-.001l-.496.859.496-.859zm.028.016l-.026-.015-.499.857a.474.474 0 00.04.023l.485-.865zm.006-.113l-.332.057.168.978.332-.057-.168-.978zm4.73 5.56a9.43 9.43 0 01-4.174-5.223l-.944.304a10.423 10.423 0 004.611 5.772l.507-.853zm.066.95l.138-.333-.916-.381-.138.333.916.381zm.086.38a.952.952 0 00.009-.452 1.912 1.912 0 00-.09-.297l-.926.357a.914.914 0 01.043.136c.004.017.004.025.004.024 0 0-.001-.018.008-.045l.952.277zm-.747 1.37c.282-.443.565-.891.734-1.331l-.926-.356c-.127.33-.351.693-.645 1.154l.837.533zm-.16.226a5.7 5.7 0 00.154-.217l-.825-.551c-.041.061-.083.118-.131.184l.802.584zm-.004.006l-.794-.595.794.595zm0 0l-.794-.595.794.595zm0 0l-.794-.595.794.595zm0 0l-.794-.595.794.595zm0 0l-.794-.595.794.595zm0 0l-.794-.595.794.595zm0 0l-.794-.595.794.595zm-.224.343c.064-.122.134-.22.228-.348l-.802-.585c-.091.125-.202.276-.304.47l.878.463zm-.052.108c.023-.05.04-.086.052-.108l-.878-.463c-.027.051-.055.114-.075.156l.901.415zm-.038.081l.038-.081-.901-.415a1.141 1.141 0 01-.031.066l.894.43zm.093.424c-.089-.043-.193-.21-.09-.429l-.899-.419c-.289.62-.106 1.421.558 1.741l.431-.893zm.389-.2c-.107.22-.301.242-.389.2l-.431.893c.668.323 1.413-.041 1.713-.662l-.893-.431zm.001-.002a.514.514 0 01.132-.167l.007-.005.001-.002h.001l-.002.001-.006.005a.66.66 0 00-.068.068.478.478 0 00-.059.087l.879.461a.566.566 0 01-.102.132.328.328 0 01-.024.022l-.006.004-.001.001.002-.002.007-.005.027-.024a.499.499 0 00.106-.145l-.894-.431zm-.049.208v.001l.992.014v-.001l-.992-.014zm.005.077v.001l.982-.141v-.001l-.982.141zm.001-.144h-.001l.982.147-.981-.147zm.056-.167l-.011.022.89.437.011-.022-.89-.437zm.022-.045l-.021.042.888.442.021-.041-.888-.443zm.052-.107c-.01.023-.027.057-.052.106l.887.444c.021-.041.051-.102.074-.154l-.909-.396zm.127-.391a2.72 2.72 0 01-.127.391l.909.396c.088-.2.136-.381.175-.529l-.957-.258zm.074-.261a7.345 7.345 0 00-.074.261l.957.258c.022-.08.041-.149.063-.219l-.946-.3zm.166-.462a8.15 8.15 0 01-.154.429l.922.366c.065-.164.121-.329.171-.477l-.939-.318zm.516-1.078c-.266.319-.405.751-.516 1.078l.939.318c.129-.38.215-.612.338-.759l-.761-.637zm.581-.321c-.093.025-.386.089-.581.321l.761.637c-.028.034-.053.042-.039.036a.236.236 0 01.039-.014l.077-.022-.257-.958zm-.134-.073l-.172.313.869.478.172-.313-.869-.478zm6.047.168a9.324 9.324 0 01-5.434-.392l-.357.926c1.856.714 3.935.906 6.011.433l-.22-.967zm1.241-.375c-.4.152-.813.278-1.241.375l.22.967c.474-.108.931-.247 1.372-.414l-.351-.928zm.697.382l-.089-.161-.865.486.085.153.869-.478zm.002.002h-.001l-.871.475h.001l.871-.475zm-.003-.003v-.001l-.866.483v.001l.866-.483zm.072.128l-.07-.126-.869.478.08.145.859-.497zm-.234-.21l-.042-.013-.307.943.063.02.286-.95zm.005.001l-.296.947.296-.947zm-.001 0l-.294.947v.001l.294-.948zm.601.417c-.205-.303-.477-.379-.605-.418l-.286.95a.958.958 0 01.074.025l-.008-.006c-.003-.003-.002-.003.002.004l.823-.555zm.573 1.38c-.165-.485-.321-.951-.556-1.353l-.857.5c.175.299.3.661.474 1.173l.939-.32zm.001.003l-.941.314.941-.314zm.011.037l-.962.241.962-.241zm-.005-.019l-.007-.021-.939.32.007.021.939-.32zm.077.265a5.506 5.506 0 00-.073-.255l-.946.3c.022.07.041.138.062.217l.957-.262zm.003.011l-.962.24.962-.24zm.127.386a2.802 2.802 0 01-.13-.397l-.957.262c.041.149.09.33.178.531l.909-.396zm.056.116a2.433 2.433 0 01-.056-.116l-.909.396c.023.053.054.116.076.16l.889-.44zm.03.061l-.03-.061-.889.44.026.054.893-.433zm.391.203c-.089.042-.284.02-.39-.201l-.894.43c.299.623 1.046.987 1.715.664l-.431-.893zm.09-.429c.102.219-.001.386-.09.429l.431.893c.663-.32.847-1.121.558-1.741l-.899.419zm-.028-.06l.031.065.893-.43a2.012 2.012 0 00-.027-.058l-.897.423zm-.061-.124c.015.028.036.071.061.124l.897-.423c-.022-.046-.053-.112-.08-.164l-.878.463zm-.226-.345c.093.128.163.224.226.345l.878-.463c-.102-.193-.213-.344-.303-.467l-.801.585zm-.012-.017l.825-.551-.825.551zm.015.022h.001l.793-.595-.794.595zm-.004-.007v.001l.803-.583-.803.582zm-.155-.217c.055.081.109.155.156.219l.8-.586c-.048-.066-.09-.123-.131-.184l-.825.551zm-.726-1.31c.17.44.439.86.721 1.301l.836-.534c-.296-.463-.504-.795-.631-1.123l-.926.356zm.041-.76c-.05.124-.16.382-.051.73l.947-.296c-.003-.007-.002-.008-.002-.004v.011l.004-.013a.839.839 0 01.022-.058l-.92-.37zm.016-.042l-.016.042.92.37.025-.065-.929-.347zm-.086.145l.053.139.035.079c.008.015.037.077.089.136l.748-.651a.38.38 0 01.03.039l.015.022.009.017-.008-.017a3.71 3.71 0 01-.018-.048l-.023-.061-.93.345zm.004.011v.001l.921-.369-.921.368zm-.038-.101l.034.09.93-.345c-.014-.037-.032-.086-.048-.124l-.916.379zm4.376-5.877a9.431 9.431 0 01-4.171 5.26l.506.854a10.427 10.427 0 004.611-5.814l-.946-.3zm.896-.279a10.706 10.706 0 00-.346-.061l-.154.98c.094.015.258.044.305.053l.195-.972zm-.334.047a.617.617 0 01-.037.025l.547.828.057-.039-.567-.814zm.702-.214c-.364-.028-.593.138-.702.214l.567.814.052-.035.012-.007a.062.062 0 01-.01.003h.003l.078-.989zm1.434.411c-.481-.172-.942-.34-1.402-.407l-.142.982c.341.049.701.177 1.208.359l.336-.934zm.023.009l-.023-.009-.336.934.023.008.336-.933zm.259.107a7.459 7.459 0 00-.249-.104l-.356.926c.069.027.134.055.21.088l.395-.91zm.385.145a2.727 2.727 0 01-.385-.145l-.395.91c.14.061.312.136.523.193l.257-.958zm.094.02a2.871 2.871 0 01-.094-.02l-.257.958c.054.014.116.026.155.034l.196-.972zm.081.017l-.081-.017-.196.972.064.014.213-.969zm.079.024l-.006-.002-.013-.005a.383.383 0 00-.048-.014l-.237.963-.041-.012-.012-.005.357-.925zm-.061-.018c.021.004.038.01.048.013l.013.005-.357.925.006.003.015.005.055.016.22-.967zm-.051-.009l.01.001.039.007-.216.968c.02.005.037.007.045.008a.05.05 0 00.011.001.01.01 0 00.004.001l.107-.986zm.063.01c-.022-.005-.039-.007-.047-.008l-.011-.002h-.004l-.108.986-.009-.001c-.006-.001-.022-.003-.042-.008l.221-.967zm.389-.184c-.022.097-.161.233-.395.183l-.209.97c.669.144 1.408-.215 1.571-.933l-.967-.22zm-.278-.338c.234.056.3.24.278.338l.967.22c.163-.718-.347-1.361-1.011-1.522l-.234.964zm-.085-.021l.092.022.22-.967-.073-.017-.239.962zm-.013-.003l.266-.956h-.001l-.265.956zm.004.001l.258-.958-.258.958zm.008.002l.241-.962-.241.962zm-.006-.002l.253-.959-.253.959zm.014.004l.225-.966-.225.966zm-.119-.028c.023.004.059.013.112.026l.239-.963c-.044-.01-.11-.027-.166-.038l-.185.975zm-.408-.037c.157.006.275.012.408.037l.185-.975c-.215-.04-.402-.047-.554-.053l-.039.991zm-.271-.015c.098.008.191.012.271.015l.039-.991a5.006 5.006 0 01-.228-.012l-.082.988zm-.027-.003l.016.002.104-.986-.016-.002-.104.986zm-1.447-.243c.445.14.935.19 1.447.243l.104-.986c-.539-.057-.922-.099-1.252-.203l-.299.946zm-.568-.494c.029.043.088.131.166.217.076.083.199.199.372.266l.359-.925a.099.099 0 01.024.013l-.02-.02a1.048 1.048 0 01-.08-.108l-.821.557zm-.008-.012l.837-.533-.837.533zm-.009-.013l.017.025.821-.557a.563.563 0 00-.027-.039l-.811.571zm-.041.101l.308.09.278-.953-.308-.089-.278.952zm-.504-3.93a9.404 9.404 0 01.152 3.386l.982.136c.168-1.215.123-2.48-.167-3.744l-.967.222zm-1.356-3.142a9.398 9.398 0 011.356 3.142l.967-.222a10.375 10.375 0 00-1.499-3.472l-.824.552zm.236-.785l-.158.142.668.734.152-.137-.662-.739zm.001 0l.66.74h.001l-.661-.74zm0-.001l-.001.001.662.739.001-.001-.662-.739zm.002-.001h-.001l.66.741-.659-.741zm0 0l-.001.001.66.74.001-.001-.66-.74zm0 0l-.001.001.662.738.001-.001-.662-.738zm.107-.097l-.107.097.662.738.117-.105-.672-.73zm-.154.276l-.004.044.988.089c.003-.024.004-.048.005-.066l-.989-.067zm.271-.682c-.249.267-.262.549-.271.682l.989.067.006-.063a.062.062 0 01.002-.015l-.004.009c-.002.004-.002.003.003-.003l-.725-.677zm1.234-.881c-.444.275-.868.536-1.211.858l.68.723c.255-.241.586-.448 1.053-.737l-.522-.844zm-.01.006l.541.832-.541-.832zm.01-.006l.522.844-.522-.844zm.248-.137a4.953 4.953 0 00-.239.132l.504.854c.064-.038.127-.071.201-.11l-.466-.876zm.351-.21c-.108.08-.212.136-.351.21l.466.876c.134-.072.3-.159.476-.289l-.591-.797zm.092-.074l-.092.074.591.797c.045-.034.097-.077.133-.106l-.632-.765zm.006-.005l.619.775h.001l-.62-.775zm.054-.044l-.06.049.632.765.05-.042-.622-.772zm.11-.431c.062.078.083.277-.109.43l.62.774c.539-.431.728-1.24.265-1.821l-.776.617zm-.438.01c.19-.152.376-.088.438-.01l.776-.617c-.462-.582-1.293-.58-1.834-.148l.62.775zm-.05.039l.047-.036-.613-.78-.047.037.613.779zm.002-.001l.001-.001-.619-.775.618.776zm-.107.086c.023-.02.058-.048.104-.084l-.611-.781c-.04.031-.096.075-.141.114l.648.751zm-.291.303c.104-.12.185-.212.291-.303l-.648-.751c-.166.143-.289.285-.391.402l.748.652zm-.175.195c.065-.069.124-.136.175-.195l-.748-.652c-.053.061-.099.114-.149.167l.722.68zm-.034.035l.027-.028-.708-.695-.027.028.708.695zm-.019.018l-.67-.731.67.731zm-1.057.949c.382-.258.722-.607 1.076-.967l-.708-.695c-.373.38-.64.649-.923.84l.555.822zm-.739.137c.052.004.158.013.274.006.112-.008.278-.032.437-.125l-.5-.857c.017-.01.027-.012.025-.012a.092.092 0 01-.026.004.939.939 0 01-.133-.005l-.077.989zm-.03-.002l.03.002.077-.989-.049-.003-.058.99zm.028.115l.289-.207-.577-.807-.289.208.577.806zm-6.656-2.971a9.478 9.478 0 016.008 2.91l.719-.684a10.468 10.468 0 00-6.639-3.214l-.088.988zm-.469-.815c.002.058.011.246.019.354l.989-.066a20.13 20.13 0 01-.017-.328l-.991.04zm.119.307l.033.031.687-.716a1.555 1.555 0 00-.051-.047l-.669.732zm-.363-.637c.053.361.265.548.363.637l.669-.732-.045-.043a.054.054 0 01-.01-.011l.005.009-.001-.004-.981.144zm.079-1.476c-.06.501-.12.984-.083 1.444l.989-.08c-.028-.34.016-.717.079-1.245l-.985-.119zm.005-.04l-.005.04.985.119.005-.041-.985-.118zm.046-.275c-.014.078-.031.168-.044.264l.982.14c.01-.073.023-.143.038-.224l-.976-.18zm.009-.038l.958.256-.958-.256zm.046-.372a2.666 2.666 0 01-.055.41l.976.18a3.76 3.76 0 00.071-.554l-.992-.036zm0-.112v.112l.992.036c.002-.056 0-.123-.001-.168l-.991.02zm-.001-.01h.992-.992zm.001.015l.991-.03-.991.03zm-.002-.09l.002.085.991-.02-.001-.069-.992.004zm-.265-.354c.097 0 .265.106.265.352h.992c0-.691-.514-1.344-1.257-1.344v.992zm-.685 9.459l.226-4.005-.99-.056-.227 4.005.991.056zm-.289.424l.016-.009-.445-.886-.016.008.445.887zm-.893.697c.63 0 1.14-.499 1.166-1.12l-.991-.042a.177.177 0 01-.175.17v.992zm-.689-.225c.194.142.432.225.689.225v-.992a.178.178 0 01-.103-.033l-.586.8zm.509.046l.007-.003-.445-.887-.006.004.444.886zm-3.786-2.367l3.277 2.328.574-.808-3.276-2.328-.575.808zm3.957-2.951a8.327 8.327 0 00-4.018 2.194l.697.706a7.35 7.35 0 013.541-1.933l-.22-.967zm.862-.15a8.552 8.552 0 00-.862.15l.22.967c.253-.058.507-.101.762-.132l-.12-.985zm1.908.985c1.623.2 3.126.937 4.277 2.067l.695-.707a8.397 8.397 0 00-4.85-2.344l-.122.984zm.783 3.479l-.227-3.999-.99.056.226 3.999.991-.056zm-.27-.414l-.004-.002-.444.887.004.002.444-.887zm.312.524a.173.173 0 01-.039-.102l-.991.042c.01.241.095.478.254.678l.776-.618zm.24.033a.175.175 0 01-.24-.033l-.776.618c.392.492 1.1.583 1.602.215l-.586-.8zm.5-.051l-.011-.005-.391.912.011.005.391-.912zm2.772-2.262l-3.255 2.314.575.808 3.255-2.313-.575-.809zm-8.642 4.212l-2.992-2.682-.662.738 2.992 2.682.662-.738zm.152.483l.003-.017-.973-.194-.003.016.973.195zm-.014 1.138a1.168 1.168 0 00-.147-1.609l-.651.747c.071.063.081.17.022.244l.776.618zm-.605.4c.231-.064.445-.199.605-.4l-.776-.618a.182.182 0 01-.091.061l.262.957zm.347-.346l.003-.013-.962-.24-.004.013.963.24zm-4.178 1.466l3.834-1.109-.275-.953-3.835 1.109.276.953zm.552-5.713a8.382 8.382 0 00-1.183 5.29l.986-.107a7.383 7.383 0 011.043-4.665l-.846-.518zm13.446.521c.416.676.732 1.433.92 2.254l.967-.222a8.48 8.48 0 00-1.042-2.552l-.845.52zm-2.222 2.778l2.975-2.669-.662-.739-2.975 2.67.662.738zm.157-.458l-.001-.008-.973.194.001.008.973-.194zm-.216.564a.17.17 0 01.056-.093l-.652-.748a1.16 1.16 0 00-.371.621l.967.22zm.125.211a.178.178 0 01-.125-.211l-.967-.22a1.17 1.17 0 00.829 1.388l.263-.957zm.358.398l-.003-.017-.973.195.003.016.973-.194zm3.505.733l-3.854-1.113-.275.953 3.854 1.113.275-.953zm-.787-1.972c.186.811.233 1.619.156 2.4l.987.097a8.46 8.46 0 00-.176-2.719l-.967.222zm-6.597-.123h-1.226v.992h1.226v-.992zm1.149 1.141l-.762-.954-.775.619.762.954.775-.619zm-.178 1.612l.274-1.191-.967-.222-.274 1.191.967.222zm-1.368.866l1.1-.531-.431-.893-1.1.53.431.894zm-1.534-.532l1.103.532.431-.894-1.104-.532-.43.894zm-.542-1.527l.274 1.191.967-.222-.274-1.191-.967.222zm.86-1.374l-.763.953.774.62.763-.953-.774-.62zm4.341 4.072c.006 0 .018 0 .039.004l.18-.976a1.144 1.144 0 00-.269-.019l.05.991zm-.067.018a.182.182 0 01.067-.018l-.05-.991a1.166 1.166 0 00-.448.116l.431.893zm-.085.231a.179.179 0 01.085-.231l-.431-.893a1.17 1.17 0 00-.566 1.515l.912-.391zm-.064.499l.005-.007-.794-.594-.005.007.794.594zm1.601 3.241l-1.54-3.728-.916.379 1.539 3.728.917-.379zm2.25-3.975a7.388 7.388 0 01-2.975 3.747l.534.836a8.37 8.37 0 003.375-4.251l-.934-.332zm-3.582-.017l3.966.672.166-.978-3.966-.672-.166.978zm.464-.172l.006-.008-.775-.619-.006.009.775.618zm-6.075.109a1.168 1.168 0 00-1.121-.909l-.014.992a.176.176 0 01.168.138l.967-.221zm-.066.721c.095-.22.123-.471.066-.721l-.967.221a.179.179 0 01-.01.108l.911.392zm-.052-.485l-.011-.015-.784.608.011.015.784-.608zm-1.457 4.183l1.524-3.69-.917-.379-1.524 3.691.917.378zm-4.09-3.992a8.4 8.4 0 003.363 4.22l.537-.834a7.406 7.406 0 01-2.967-3.722l-.933.336zm4.315-1.326l-3.932.669.166.978 3.933-.669-.167-.978zm.477.188l-.006-.008-.775.618.006.009.775-.619zm-.248-.198a1.155 1.155 0 00-.229.02l.18.975c.013-.003.026-.003.035-.003l.014-.992zm3.333 2.608a.17.17 0 01.08.018l.431-.893a1.157 1.157 0 00-.548-.116l.037.991zm-.149.094a.178.178 0 01.149-.094l-.037-.991c-.403.015-.786.24-.987.618l.875.467zm-.441.262h.003v-.992h-.003v.992zm-1.499 3.248l1.933-3.504-.868-.479-1.934 3.504.869.479zm3.754-.501a7.367 7.367 0 01-4.028-.208l-.321.939a8.35 8.35 0 004.569.236l-.22-.967zm.727-.204a7.7 7.7 0 01-.727.204l.22.967c.28-.064.555-.14.823-.23l-.316-.941zm-2.215-2.801l1.938 3.511.869-.479-1.939-3.511-.868.479zm.42.257h.014v-.992h-.014v.992zm-.517-.337a.178.178 0 01.079.074l.875-.467a1.162 1.162 0 00-.523-.5l-.431.893z" fill="#fff"></path></svg>